<svg width="208" height="141" viewBox="0 0 208 141" fill="none" xmlns="http://www.w3.org/2000/svg">
<g clip-path="url(#clip0_321_33)">
<rect x="7.03595" y="2.69931" width="140.719" height="88.389" fill="white"/>
<path d="M165.7 62.6308L166.317 57.6798C166.536 55.9203 167.446 54.32 168.844 53.2311C170.243 52.1421 172.017 51.6537 173.776 51.8732C175.535 52.0927 177.135 53.0022 178.223 54.4016C179.312 55.801 179.8 57.5757 179.581 59.3352L178.963 64.2862C178.933 64.5224 178.811 64.7372 178.623 64.8835C178.435 65.0297 178.197 65.0954 177.961 65.0662L166.479 63.6332C166.243 63.6034 166.028 63.4812 165.882 63.2933C165.736 63.1054 165.67 62.8671 165.7 62.6308Z" fill="#2F2E41"/>
<path d="M171.199 64.1079C173.906 64.1079 176.099 61.9133 176.099 59.2061C176.099 56.4989 173.906 54.3044 171.199 54.3044C168.493 54.3044 166.3 56.4989 166.3 59.2061C166.3 61.9133 168.493 64.1079 171.199 64.1079Z" fill="#FFB8B8"/>
<path d="M164.699 57.8801C164.874 56.4889 165.593 55.224 166.7 54.3629C167.806 53.5018 169.208 53.1148 170.599 53.2868L171.589 53.4103C172.98 53.5855 174.244 54.3053 175.105 55.4119C175.966 56.5185 176.353 57.9215 176.181 59.3131L176.168 59.4121L174.076 59.1511L173.612 57.0634L173.22 59.0442L172.139 58.9093L171.905 57.856L171.707 58.8554L164.686 57.9791L164.699 57.8801Z" fill="#2F2E41"/>
<path d="M147.235 76.6916C147.384 76.9857 147.597 77.2435 147.857 77.4466C148.117 77.6497 148.418 77.7933 148.74 77.8673C149.061 77.9413 149.395 77.9438 149.718 77.8748C150.041 77.8057 150.344 77.6667 150.607 77.4675L155.058 80.0756L157.302 77.7566L150.965 74.1618C150.601 73.7417 150.096 73.4697 149.546 73.3973C148.995 73.3249 148.436 73.4572 147.977 73.769C147.517 74.0808 147.187 74.5506 147.05 75.0892C146.914 75.6279 146.979 76.198 147.235 76.6916Z" fill="#FFB8B8"/>
<path d="M161.821 81.378C158.538 81.378 152.761 79.9079 152.441 79.8258L152.34 79.7999L153.25 75.195L162.073 76.9384L166.866 70.1858L172.369 69.6262L172.215 69.8284C172.144 69.9226 165.05 79.2646 163.946 80.8317C163.668 81.2271 162.872 81.378 161.821 81.378Z" fill="#3F3D56"/>
<path d="M162.701 98.6612L162.569 98.5985C162.541 98.5851 159.752 97.228 158.308 94.5786C156.87 91.9417 163.6 80.756 164.071 79.9799L164.078 76.4276L166.499 69.8883L169.587 68.1425L166.936 74.3304L162.701 98.6612Z" fill="#3F3D56"/>
<path d="M159.607 136.841L156.656 136.841L155.252 125.454L159.608 125.454L159.607 136.841Z" fill="#FFB8B8"/>
<path d="M160.36 139.703L150.845 139.702V139.582C150.845 138.599 151.235 137.657 151.929 136.962C152.624 136.267 153.566 135.877 154.548 135.877H154.548L160.36 135.877L160.36 139.703Z" fill="#2F2E41"/>
<path d="M191.304 134.254L188.5 135.173L183.622 124.79L187.76 123.433L191.304 134.254Z" fill="#FFB8B8"/>
<path d="M192.91 136.739L183.868 139.703L183.831 139.588C183.525 138.655 183.602 137.638 184.046 136.761C184.49 135.884 185.263 135.22 186.197 134.914L186.197 134.914L191.72 133.104L192.91 136.739Z" fill="#2F2E41"/>
<path d="M185.591 132.392L177.178 118.343L170.077 103.332L163.686 116.591L161.148 133.764L152.245 133.888L152.28 133.749L165.904 79.5929L176.574 81.1876L176.089 88.2336L176.378 88.6451C178.788 92.0706 181.281 95.6124 179.851 99.4303L183.903 111.467L192.873 131.509L185.591 132.392Z" fill="#2F2E41"/>
<path d="M166.392 91.3301C164.846 91.3301 163.082 89.564 163.997 86.5488L163.937 86.5059L166.136 76.7905C164.217 74.046 166.746 71.781 166.983 71.5787L168.191 69.4048L173.517 66.0253L176.212 88.4272L176.173 88.4653C174.226 90.3285 167.689 91.3301 166.392 91.3301Z" fill="#00A8E1"/>
<path d="M177.301 96.3851C177.089 96.3884 176.878 96.366 176.671 96.3185C176.464 96.2665 176.129 96.0026 175.61 94.3145C173.55 87.6039 171.118 67.412 172.885 65.4362L172.925 65.3909L175.827 65.8747C176.068 65.6966 177.334 64.8127 178.502 64.9664C178.742 64.9966 178.974 65.0759 179.183 65.1993C179.391 65.3226 179.573 65.4875 179.715 65.6836L179.735 65.7098L180.659 78.8662L184.046 94.3486L183.965 94.3855C183.768 94.4752 179.539 96.3851 177.301 96.3851Z" fill="#3F3D56"/>
<path d="M175.349 91.2429C175.679 91.2319 176.002 91.1487 176.296 90.9991C176.59 90.8496 176.848 90.6373 177.052 90.3773C177.255 90.1173 177.399 89.8159 177.473 89.4942C177.547 89.1726 177.55 88.8386 177.481 88.5157L181.729 85.5889L180.581 82.5728L174.64 86.7903C174.106 86.9418 173.645 87.2841 173.346 87.7525C173.047 88.2209 172.93 88.7827 173.018 89.3316C173.105 89.8804 173.391 90.3781 173.82 90.7304C174.25 91.0827 174.794 91.265 175.349 91.2429Z" fill="#FFB8B8"/>
<path d="M180.327 87.9341L176.544 85.1584L181.862 77.9031L177.781 70.6977L179.607 65.4742L179.725 65.6992C179.78 65.8039 185.23 76.1914 186.181 77.8561C187.17 79.5877 180.671 87.5169 180.394 87.8535L180.327 87.9341Z" fill="#3F3D56"/>
<path d="M95.2183 120.589L91.9981 119.233L89.7891 103.084H60.3716L57.9772 119.167L55.0962 120.608C54.9583 120.677 54.8478 120.79 54.7825 120.93C54.7172 121.07 54.7009 121.227 54.7363 121.377C54.7717 121.527 54.8568 121.661 54.9776 121.757C55.0985 121.852 55.2481 121.904 55.4022 121.904H94.9529C95.1109 121.904 95.264 121.85 95.3862 121.75C95.5085 121.65 95.5923 121.51 95.6236 121.356C95.6548 121.201 95.6316 121.04 95.5577 120.9C95.4838 120.76 95.3639 120.651 95.2183 120.589Z" fill="#E6E6E6"/>
<path d="M147.495 105.232H2.98843C2.23024 105.23 1.50369 104.928 0.968173 104.391C0.432655 103.854 0.131902 103.127 0.131897 102.368V81.9828H150.352V102.368C150.352 103.127 150.051 103.854 149.515 104.391C148.98 104.928 148.253 105.23 147.495 105.232Z" fill="#CCCCCC"/>
<path d="M150.503 91.6174H0V4.3929C0.0010572 3.47753 0.365021 2.59995 1.01205 1.95269C1.65907 1.30544 2.53631 0.941365 3.45133 0.940338H147.051C147.966 0.941362 148.844 1.30544 149.491 1.95269C150.138 2.59995 150.502 3.47752 150.503 4.3929V91.6174Z" fill="#3F3D56"/>
<path d="M141.514 85.2866H8.98891C8.28349 85.2859 7.60719 85.0052 7.10837 84.5062C6.60956 84.0072 6.32898 83.3306 6.32819 82.6249V9.93279C6.32897 9.22708 6.60955 8.5505 7.10836 8.05147C7.60717 7.55245 8.28347 7.27175 8.98891 7.27094H141.514C142.219 7.27175 142.896 7.55245 143.394 8.05147C143.893 8.5505 144.174 9.22708 144.175 9.93279V82.6249C144.174 83.3306 143.893 84.0072 143.394 84.5062C142.896 85.0052 142.219 85.2859 141.514 85.2866Z" fill="white"/>
<path d="M112.418 122.073H37.9505C37.8742 122.075 37.7995 122.051 37.7381 122.006C37.6766 121.96 37.6319 121.896 37.6108 121.823C37.5977 121.773 37.5961 121.72 37.6063 121.67C37.6165 121.619 37.6382 121.572 37.6697 121.531C37.7012 121.49 37.7417 121.457 37.788 121.434C37.8343 121.411 37.8852 121.399 37.9368 121.399H112.39C112.471 121.396 112.55 121.421 112.615 121.469C112.679 121.516 112.726 121.585 112.747 121.663C112.758 121.712 112.758 121.763 112.746 121.812C112.735 121.861 112.713 121.907 112.681 121.947C112.649 121.986 112.609 122.018 112.564 122.04C112.518 122.062 112.469 122.073 112.418 122.073Z" fill="#CCCCCC"/>
<path d="M140.099 19.0231H108.102V43.4779H140.099V19.0231Z" fill="#F2F2F2"/>
<path d="M138.509 20.2382H109.692V42.2628H138.509V20.2382Z" fill="white"/>
<path d="M124.606 36.5749C124.61 36.575 124.614 36.5749 124.618 36.5747C126.569 36.4726 128.407 35.6311 129.76 34.2212C131.112 32.8114 131.877 30.9391 131.899 28.9851C131.921 27.031 131.198 25.142 129.878 23.7022C128.557 22.2624 126.738 21.3798 124.79 21.234C124.766 21.2321 124.741 21.2352 124.719 21.2431C124.696 21.251 124.675 21.2636 124.657 21.28C124.639 21.2961 124.625 21.3157 124.615 21.3376C124.606 21.3595 124.601 21.3831 124.6 21.4071L124.432 36.3974C124.432 36.444 124.45 36.4889 124.483 36.5222C124.515 36.5555 124.56 36.5744 124.606 36.5749Z" fill="#3F3D56"/>
<path d="M118.581 23.7128C118.641 23.7135 118.698 23.7379 118.74 23.7806L123.898 29.0582C123.919 29.0793 123.935 29.1043 123.946 29.1318C123.957 29.1593 123.963 29.1887 123.962 29.2183L123.882 36.3913C123.882 36.422 123.875 36.4524 123.863 36.4806C123.85 36.5087 123.832 36.5339 123.809 36.5546C123.786 36.5756 123.759 36.5917 123.73 36.6018C123.701 36.612 123.67 36.616 123.639 36.6137C122.205 36.5063 120.829 36.0009 119.666 35.1543C118.503 34.3077 117.599 33.1534 117.055 31.8212C116.512 30.4889 116.351 29.0315 116.59 27.6127C116.829 26.1938 117.459 24.8698 118.409 23.7893C118.429 23.7661 118.455 23.7473 118.483 23.7341C118.511 23.7209 118.541 23.7137 118.572 23.7128C118.575 23.7128 118.578 23.7128 118.581 23.7128Z" fill="#E6E6E6"/>
<path d="M123.826 21.1727C123.884 21.1734 123.939 21.196 123.981 21.2358C124.003 21.2571 124.02 21.2827 124.032 21.3111C124.044 21.3395 124.05 21.3701 124.05 21.4009L123.977 27.8728C123.977 27.9174 123.963 27.9608 123.938 27.9976C123.913 28.0343 123.877 28.0628 123.836 28.0794C123.795 28.096 123.749 28.1 123.706 28.0908C123.662 28.0816 123.622 28.0597 123.591 28.0278L119.09 23.4225C119.068 23.4006 119.051 23.3746 119.04 23.346C119.029 23.3175 119.024 23.2869 119.025 23.2564C119.027 23.2258 119.034 23.1957 119.047 23.168C119.06 23.1404 119.079 23.1157 119.102 23.0954C120.411 21.9426 122.07 21.2653 123.812 21.173C123.817 21.1728 123.821 21.1727 123.826 21.1727Z" fill="#00A8E1"/>
<path d="M121.507 39.6835C121.504 39.9565 121.42 40.2225 121.266 40.4478C121.112 40.6731 120.894 40.8476 120.641 40.9493C120.388 41.0509 120.11 41.0752 119.843 41.0189C119.576 40.9626 119.331 40.8284 119.141 40.6332C118.95 40.4379 118.821 40.1905 118.771 39.9221C118.721 39.6537 118.751 39.3765 118.858 39.1254C118.966 38.8743 119.145 38.6607 119.374 38.5116C119.602 38.3624 119.87 38.2845 120.143 38.2875C120.509 38.2921 120.858 38.4416 121.114 38.7033C121.369 38.9649 121.511 39.3175 121.507 39.6835Z" fill="#00A8E1"/>
<path d="M125.45 39.7277C125.447 40.0007 125.363 40.2667 125.209 40.492C125.054 40.7173 124.837 40.8918 124.584 40.9935C124.33 41.0952 124.053 41.1194 123.786 41.0631C123.518 41.0068 123.274 40.8726 123.083 40.6774C122.892 40.4822 122.764 40.2347 122.713 39.9663C122.663 39.698 122.694 39.4207 122.801 39.1696C122.908 38.9186 123.087 38.7049 123.316 38.5558C123.545 38.4067 123.812 38.3287 124.085 38.3318C124.451 38.3363 124.8 38.4858 125.056 38.7475C125.312 39.0092 125.453 39.3617 125.45 39.7277Z" fill="#3F3D56"/>
<path d="M129.392 39.7719C129.389 40.0449 129.305 40.3109 129.151 40.5362C128.997 40.7615 128.78 40.9361 128.526 41.0377C128.273 41.1394 127.995 41.1636 127.728 41.1073C127.461 41.0511 127.217 40.9168 127.026 40.7216C126.835 40.5264 126.706 40.2789 126.656 40.0106C126.606 39.7422 126.636 39.4649 126.744 39.2138C126.851 38.9628 127.03 38.7492 127.259 38.6C127.487 38.4509 127.755 38.3729 128.028 38.376C128.394 38.3805 128.743 38.53 128.999 38.7917C129.255 39.0534 129.396 39.4059 129.392 39.7719Z" fill="#E6E6E6"/>
<path d="M139.762 47.3267H107.765V71.7815H139.762V47.3267Z" fill="#F2F2F2"/>
<path d="M138.172 48.5418H109.355V70.5664H138.172V48.5418Z" fill="white"/>
<path d="M114.244 55.7806C114.905 55.7806 115.441 55.2447 115.441 54.5836C115.441 53.9225 114.905 53.3866 114.244 53.3866C113.583 53.3866 113.048 53.9225 113.048 54.5836C113.048 55.2447 113.583 55.7806 114.244 55.7806Z" fill="#3F3D56"/>
<path d="M133.469 53.6521C133.576 53.6519 133.681 53.6728 133.78 53.7135C133.879 53.7543 133.968 53.814 134.044 53.8894C134.119 53.9648 134.179 54.0544 134.22 54.1529C134.261 54.2515 134.282 54.3572 134.282 54.4639C134.282 54.5706 134.261 54.6763 134.22 54.7749C134.179 54.8735 134.119 54.963 134.044 55.0384C133.968 55.1138 133.879 55.1736 133.78 55.2143C133.681 55.255 133.576 55.2759 133.469 55.2757H120.885C120.67 55.2757 120.463 55.1902 120.311 55.0379C120.159 54.8857 120.073 54.6792 120.073 54.4639C120.073 54.2486 120.159 54.0421 120.311 53.8899C120.463 53.7377 120.67 53.6521 120.885 53.6521H133.469ZM133.469 53.4533H120.885C120.752 53.4531 120.621 53.4791 120.498 53.5298C120.375 53.5805 120.263 53.6549 120.17 53.7488C120.076 53.8426 120.001 53.9541 119.95 54.0768C119.899 54.1995 119.873 54.3311 119.873 54.4639C119.873 54.5967 119.899 54.7283 119.95 54.851C120.001 54.9737 120.076 55.0852 120.17 55.179C120.263 55.2729 120.375 55.3473 120.498 55.398C120.621 55.4487 120.752 55.4747 120.885 55.4745H133.469C133.602 55.4747 133.733 55.4487 133.856 55.398C133.979 55.3473 134.09 55.2729 134.184 55.179C134.278 55.0852 134.353 54.9737 134.404 54.851C134.455 54.7283 134.481 54.5967 134.481 54.4639C134.481 54.3311 134.455 54.1995 134.404 54.0768C134.353 53.9541 134.278 53.8426 134.184 53.7488C134.09 53.6549 133.979 53.5805 133.856 53.5298C133.733 53.4791 133.602 53.4531 133.469 53.4533Z" fill="#3F3D56"/>
<path d="M128.504 55.4745H119.03C118.762 55.4745 118.505 55.368 118.316 55.1785C118.126 54.989 118.02 54.7319 118.02 54.4639C118.02 54.1959 118.126 53.9388 118.316 53.7493C118.505 53.5598 118.762 53.4533 119.03 53.4533H128.504C128.772 53.4533 129.028 53.5598 129.218 53.7493C129.407 53.9388 129.514 54.1959 129.514 54.4639C129.514 54.7319 129.407 54.989 129.218 55.1785C129.028 55.368 128.772 55.4745 128.504 55.4745Z" fill="#00A8E1"/>
<path d="M114.244 60.7511C114.905 60.7511 115.441 60.2152 115.441 59.5541C115.441 58.893 114.905 58.3571 114.244 58.3571C113.583 58.3571 113.048 58.893 113.048 59.5541C113.048 60.2152 113.583 60.7511 114.244 60.7511Z" fill="#3F3D56"/>
<path d="M133.469 58.6226C133.576 58.6224 133.682 58.6433 133.78 58.684C133.879 58.7247 133.968 58.7845 134.044 58.8599C134.119 58.9353 134.179 59.0249 134.22 59.1234C134.261 59.222 134.282 59.3277 134.282 59.4344C134.282 59.5411 134.261 59.6468 134.22 59.7454C134.179 59.8439 134.119 59.9335 134.044 60.0089C133.968 60.0843 133.879 60.1441 133.78 60.1848C133.682 60.2255 133.576 60.2464 133.469 60.2462H120.885C120.67 60.2462 120.463 60.1607 120.311 60.0084C120.159 59.8562 120.073 59.6497 120.073 59.4344C120.073 59.2191 120.159 59.0126 120.311 58.8604C120.463 58.7081 120.67 58.6226 120.885 58.6226H133.469ZM133.469 58.4238H120.885C120.617 58.4238 120.36 58.5303 120.171 58.7198C119.981 58.9093 119.875 59.1664 119.875 59.4344C119.875 59.7024 119.981 59.9595 120.171 60.149C120.36 60.3385 120.617 60.445 120.885 60.445H133.469C133.737 60.445 133.994 60.3385 134.184 60.149C134.373 59.9595 134.479 59.7024 134.479 59.4344C134.479 59.1664 134.373 58.9093 134.184 58.7198C133.994 58.5303 133.737 58.4238 133.469 58.4238Z" fill="#3F3D56"/>
<path d="M132.081 60.445H119.03C118.762 60.445 118.505 60.3385 118.316 60.149C118.126 59.9595 118.02 59.7024 118.02 59.4344C118.02 59.1664 118.126 58.9093 118.316 58.7198C118.505 58.5303 118.762 58.4238 119.03 58.4238H132.081C132.349 58.4238 132.606 58.5303 132.795 58.7198C132.985 58.9093 133.091 59.1664 133.091 59.4344C133.091 59.7024 132.985 59.9595 132.795 60.149C132.606 60.3385 132.349 60.445 132.081 60.445Z" fill="#00A8E1"/>
<path d="M114.244 65.7216C114.905 65.7216 115.441 65.1857 115.441 64.5246C115.441 63.8635 114.905 63.3276 114.244 63.3276C113.583 63.3276 113.048 63.8635 113.048 64.5246C113.048 65.1857 113.583 65.7216 114.244 65.7216Z" fill="#3F3D56"/>
<path d="M133.469 63.5931C133.576 63.5929 133.682 63.6138 133.78 63.6545C133.879 63.6952 133.968 63.755 134.044 63.8304C134.119 63.9058 134.179 63.9953 134.22 64.0939C134.261 64.1925 134.282 64.2982 134.282 64.4049C134.282 64.5116 134.261 64.6173 134.22 64.7159C134.179 64.8144 134.119 64.904 134.044 64.9794C133.968 65.0548 133.879 65.1145 133.78 65.1553C133.682 65.196 133.576 65.2168 133.469 65.2167H120.885C120.67 65.2167 120.463 65.1311 120.311 64.9789C120.159 64.8267 120.073 64.6202 120.073 64.4049C120.073 64.1896 120.159 63.9831 120.311 63.8309C120.463 63.6786 120.67 63.5931 120.885 63.5931H133.469ZM133.469 63.3943H120.885C120.617 63.3943 120.36 63.5008 120.171 63.6903C119.981 63.8798 119.875 64.1369 119.875 64.4049C119.875 64.6729 119.981 64.93 120.171 65.1195C120.36 65.309 120.617 65.4155 120.885 65.4155H133.469C133.737 65.4155 133.994 65.309 134.184 65.1195C134.373 64.93 134.479 64.6729 134.479 64.4049C134.479 64.1369 134.373 63.8798 134.184 63.6903C133.994 63.5008 133.737 63.3943 133.469 63.3943Z" fill="#3F3D56"/>
<path d="M124.33 65.4155H119.03C118.897 65.4157 118.766 65.3897 118.643 65.339C118.52 65.2883 118.409 65.2139 118.315 65.12C118.221 65.0262 118.146 64.9147 118.096 64.792C118.045 64.6693 118.019 64.5377 118.019 64.4049C118.019 64.2721 118.045 64.1405 118.096 64.0178C118.146 63.8951 118.221 63.7836 118.315 63.6898C118.409 63.5959 118.52 63.5215 118.643 63.4708C118.766 63.4201 118.897 63.3941 119.03 63.3943H124.33C124.598 63.3947 124.854 63.5013 125.043 63.6908C125.232 63.8803 125.339 64.1371 125.339 64.4049C125.339 64.6727 125.232 64.9295 125.043 65.119C124.854 65.3084 124.598 65.4151 124.33 65.4155Z" fill="#00A8E1"/>
<path d="M100.692 23.3497H11.2962V69.1827H100.692V23.3497Z" fill="#F2F2F2"/>
<path d="M97.7118 25.6271H14.2761V66.9054H97.7118V25.6271Z" fill="white"/>
<path d="M87.364 60.608H26.5409C26.4905 60.608 26.442 60.5879 26.4063 60.5522C26.3706 60.5165 26.3506 60.468 26.3506 60.4175V31.2537C26.3506 31.2031 26.3706 31.1547 26.4063 31.119C26.442 31.0833 26.4905 31.0632 26.5409 31.0632C26.5914 31.0632 26.6398 31.0833 26.6755 31.119C26.7112 31.1547 26.7313 31.2031 26.7313 31.2537V60.2271H87.364C87.4145 60.2271 87.4629 60.2472 87.4986 60.2829C87.5343 60.3186 87.5543 60.367 87.5543 60.4175C87.5543 60.468 87.5343 60.5165 87.4986 60.5522C87.4629 60.5879 87.4145 60.608 87.364 60.608Z" fill="#3F3D56"/>
<path d="M39.5362 58.5133H34.0041C33.8543 58.5131 33.7107 58.4535 33.6047 58.3476C33.4988 58.2416 33.4392 58.0979 33.439 57.9481V50.3191C33.4392 50.1692 33.4988 50.0255 33.6047 49.9196C33.7107 49.8136 33.8543 49.754 34.0041 49.7538H39.5362C39.686 49.754 39.8296 49.8136 39.9355 49.9196C40.0414 50.0255 40.101 50.1692 40.1012 50.3191V57.9481C40.101 58.0979 40.0414 58.2416 39.9355 58.3476C39.8296 58.4535 39.686 58.5131 39.5362 58.5133Z" fill="#00A8E1"/>
<path d="M49.6246 58.5133H44.0925C43.9427 58.5131 43.7991 58.4535 43.6932 58.3476C43.5872 58.2416 43.5276 58.0979 43.5275 57.9481V43.083C43.5276 42.9332 43.5872 42.7895 43.6932 42.6835C43.7991 42.5776 43.9427 42.518 44.0925 42.5178H49.6246C49.7744 42.518 49.918 42.5776 50.024 42.6835C50.1299 42.7895 50.1895 42.9332 50.1897 43.083V57.9481C50.1895 58.0979 50.1299 58.2416 50.024 58.3476C49.918 58.4535 49.7744 58.5131 49.6246 58.5133Z" fill="#00A8E1"/>
<path d="M59.7131 58.5133H54.181C54.0312 58.5131 53.8876 58.4535 53.7817 58.3476C53.6757 58.2416 53.6161 58.0979 53.616 57.9481V50.3191C53.6161 50.1692 53.6757 50.0255 53.7817 49.9196C53.8876 49.8136 54.0312 49.754 54.181 49.7538H59.7131C59.8629 49.754 60.0065 49.8136 60.1125 49.9196C60.2184 50.0255 60.278 50.1692 60.2782 50.3191V57.9481C60.278 58.0979 60.2184 58.2416 60.1125 58.3476C60.0065 58.4535 59.8629 58.5131 59.7131 58.5133Z" fill="#00A8E1"/>
<path d="M69.8015 58.5133H64.2695C64.1231 58.5165 63.9814 58.4614 63.8755 58.3603C63.7696 58.2592 63.7081 58.1201 63.7044 57.9737V40.2011C63.7081 40.0546 63.7696 39.9156 63.8755 39.8145C63.9814 39.7133 64.1231 39.6583 64.2695 39.6614H69.8015C69.9479 39.6583 70.0896 39.7133 70.1955 39.8145C70.3014 39.9156 70.3629 40.0546 70.3666 40.2011V57.9737C70.3629 58.1201 70.3014 58.2591 70.1955 58.3603C70.0896 58.4614 69.9479 58.5165 69.8015 58.5133Z" fill="#00A8E1"/>
<path d="M79.89 58.5133H74.3579C74.2081 58.5131 74.0645 58.4535 73.9586 58.3476C73.8526 58.2416 73.793 58.0979 73.7928 57.9481V35.0852C73.793 34.9354 73.8526 34.7917 73.9586 34.6857C74.0645 34.5798 74.2081 34.5202 74.3579 34.52H79.89C80.0398 34.5202 80.1834 34.5798 80.2893 34.6857C80.3953 34.7917 80.4549 34.9354 80.455 35.0852V57.9481C80.4549 58.0979 80.3953 58.2416 80.2893 58.3476C80.1834 58.4535 80.0398 58.5131 79.89 58.5133Z" fill="#00A8E1"/>
<path d="M36.7701 47.4688C37.4009 47.4688 37.9122 46.9573 37.9122 46.3263C37.9122 45.6952 37.4009 45.1837 36.7701 45.1837C36.1394 45.1837 35.6281 45.6952 35.6281 46.3263C35.6281 46.9573 36.1394 47.4688 36.7701 47.4688Z" fill="#3F3D56"/>
<path d="M46.8586 40.0423C47.4893 40.0423 48.0007 39.5308 48.0007 38.8998C48.0007 38.2688 47.4893 37.7572 46.8586 37.7572C46.2278 37.7572 45.7165 38.2688 45.7165 38.8998C45.7165 39.5308 46.2278 40.0423 46.8586 40.0423Z" fill="#3F3D56"/>
<path d="M56.947 47.4688C57.5778 47.4688 58.0891 46.9573 58.0891 46.3263C58.0891 45.6952 57.5778 45.1837 56.947 45.1837C56.3163 45.1837 55.8049 45.6952 55.8049 46.3263C55.8049 46.9573 56.3163 47.4688 56.947 47.4688Z" fill="#3F3D56"/>
<path d="M67.0355 36.4243C67.6663 36.4243 68.1776 35.9127 68.1776 35.2817C68.1776 34.6507 67.6663 34.1392 67.0355 34.1392C66.4048 34.1392 65.8934 34.6507 65.8934 35.2817C65.8934 35.9127 66.4048 36.4243 67.0355 36.4243Z" fill="#3F3D56"/>
<path d="M77.124 32.235C77.7547 32.235 78.2661 31.7234 78.2661 31.0924C78.2661 30.4614 77.7547 29.9499 77.124 29.9499C76.4932 29.9499 75.9819 30.4614 75.9819 31.0924C75.9819 31.7234 76.4932 32.235 77.124 32.235Z" fill="#3F3D56"/>
<path d="M56.971 46.5822L46.8586 39.0048L36.8842 46.4786L36.656 46.174L46.8586 38.5289L56.9229 46.0702L66.9243 35.1214L66.9642 35.105L77.0528 31.0388L77.1951 31.392L67.1467 35.4421L56.971 46.5822Z" fill="#3F3D56"/>
<path d="M207.779 140.34H123.701C123.642 140.34 123.586 140.317 123.545 140.275C123.503 140.234 123.48 140.178 123.48 140.119C123.48 140.061 123.503 140.004 123.545 139.963C123.586 139.922 123.642 139.898 123.701 139.898H207.779C207.838 139.898 207.894 139.922 207.935 139.963C207.977 140.004 208 140.061 208 140.119C208 140.178 207.977 140.234 207.935 140.275C207.894 140.317 207.838 140.34 207.779 140.34Z" fill="#CCCCCC"/>
</g>
<defs>
<clipPath id="clip0_321_33">
<rect width="208" height="139.4" fill="white" transform="translate(0 0.940338)"/>
</clipPath>
</defs>
</svg>
