<svg width="272" height="160" viewBox="0 0 272 160" fill="none" xmlns="http://www.w3.org/2000/svg">
<path d="M43.0267 3.05176e-05H233.286C237.526 3.05176e-05 240.95 3.42532 240.95 7.668V133.703H35.3634V7.668C35.3634 3.42532 38.7866 3.05176e-05 43.0267 3.05176e-05Z" fill="#2D2A25"/>
<path d="M231.245 10.0637H45.7864V123.639H231.245V10.0637Z" fill="white"/>
<path d="M231.245 10.0637H45.7864V12.939H231.245V10.0637Z" fill="#F2F2F2"/>
<path d="M48.3024 12.5796C48.6994 12.5796 49.0212 12.1773 49.0212 11.6811C49.0212 11.1848 48.6994 10.7825 48.3024 10.7825C47.9054 10.7825 47.5836 11.1848 47.5836 11.6811C47.5836 12.1773 47.9054 12.5796 48.3024 12.5796Z" fill="#4D4D4D"/>
<path d="M57.6472 10.7825H50.8183V12.2202H57.6472V10.7825Z" fill="#4D4D4D"/>
<path d="M61.2414 10.7825H59.8037V12.2202H61.2414V10.7825Z" fill="#4D4D4D"/>
<path d="M229.089 10.7825H226.573V12.2202H229.089V10.7825Z" fill="#4D4D4D"/>
<path d="M222.619 10.7825H217.947V12.2202H222.619V10.7825Z" fill="#4D4D4D"/>
<path d="M225.495 10.7825H224.416V12.2202H225.495V10.7825Z" fill="#4D4D4D"/>
<path d="M1.21823 149.158C-0.570877 152.97 1.10155 157.476 4.91314 159.247C5.92437 159.709 7.0523 159.94 8.14132 159.94H263.478C267.718 159.94 271.141 156.552 271.141 152.354C271.141 151.237 270.907 150.159 270.44 149.158H1.21823Z" fill="#CCCCCC"/>
<path d="M114.461 149.158C114.226 151.095 115.631 152.874 117.542 153.072C117.659 153.072 117.815 153.111 117.932 153.111H152.257C154.208 153.111 155.768 151.53 155.768 149.553C155.768 149.435 155.768 149.276 155.729 149.158H114.461Z" fill="#F2F2F2"/>
<path d="M271.5 149.158H2.29706L35.4117 133.703H241.112L271.5 149.158Z" fill="#F2F2F2"/>
<path d="M239.512 141.61H35.3634L48.2201 135.141H228.993L239.512 141.61Z" fill="#1A1A1A"/>
<path d="M179.13 147.72H92.5106L99.8907 142.329H173.304L179.13 147.72Z" fill="#FFFFFE"/>
<path d="M251.732 152.033H243.106V153.111H251.732V152.033Z" fill="#666666"/>
<path d="M117.31 149.158C117.972 149.841 118.907 150.236 119.919 150.236H150.284C151.296 150.236 152.231 149.841 152.893 149.158H117.31Z" fill="#B3B3B3"/>
<path d="M138.156 9.35771C138.752 9.35771 139.235 8.95542 139.235 8.45917C139.235 7.96292 138.752 7.56063 138.156 7.56063C137.561 7.56063 137.078 7.96292 137.078 8.45917C137.078 8.95542 137.561 9.35771 138.156 9.35771Z" fill="#CCCCCC"/>
</svg>
