<svg width="190" height="183" viewBox="0 0 190 183" fill="none" xmlns="http://www.w3.org/2000/svg">
<g clip-path="url(#clip0_377_40)">
<path d="M149.486 88.9574L159.201 78.394L151.25 72.123L147.322 80.803L129.502 86.6875C128.901 86.3423 128.213 86.1793 127.521 86.2182C126.83 86.2572 126.164 86.4965 125.606 86.9069C125.048 87.3174 124.622 87.8812 124.379 88.5297C124.136 89.1783 124.087 89.8834 124.238 90.5592C124.389 91.235 124.734 91.8523 125.23 92.3358C125.726 92.8192 126.352 93.148 127.032 93.282C127.711 93.416 128.415 93.3494 129.058 93.0904C129.7 92.8313 130.254 92.391 130.65 91.8232L149.486 88.9574Z" fill="#FFB6B6"/>
<path d="M167.295 65.0906C169.056 69.0156 158.312 80.2288 158.312 80.2288C155.373 82.604 154.908 88.5492 151.265 89.2111C141.44 90.9967 147.551 89.1282 145.013 90.1039C142.625 91.022 144.825 83.1637 143.227 82.6642C142.313 82.3785 147.395 79.0931 147.395 79.0931C147.395 79.0931 151.975 70.1156 154.791 65.459C155.562 64.1277 156.659 63.0132 157.977 62.2193C159.296 61.4254 160.794 60.9778 162.332 60.9182C162.332 60.9182 165.534 61.1655 167.295 65.0906Z" fill="#E6E6E6"/>
<path d="M121.808 181.772H10.1743C7.52832 181.769 4.99161 180.717 3.12065 178.847C1.24968 176.977 0.197264 174.441 0.194275 171.796V9.97545C0.197263 7.33071 1.24968 4.79515 3.12065 2.92504C4.99161 1.05493 7.52832 0.00298675 10.1743 0H121.808C124.454 0.00298754 126.991 1.05493 128.862 2.92504C130.733 4.79515 131.785 7.33071 131.788 9.97545V171.796C131.785 174.441 130.733 176.977 128.862 178.847C126.991 180.717 124.454 181.769 121.808 181.772V181.772Z" fill="#3F3D56"/>
<path d="M122.005 175.407H9.97775C9.16211 175.406 8.38014 175.082 7.8034 174.505C7.22666 173.929 6.90224 173.147 6.90131 172.332V9.43954C6.90224 8.62428 7.22667 7.84267 7.80341 7.26619C8.38015 6.68971 9.16211 6.36543 9.97775 6.3645H122.005C122.82 6.36543 123.602 6.68971 124.179 7.26619C124.756 7.84267 125.08 8.62428 125.081 9.43954V172.332C125.08 173.147 124.756 173.929 124.179 174.505C123.602 175.082 122.82 175.406 122.005 175.407V175.407Z" fill="white"/>
<path d="M15.4431 81.319C15.7558 77.0746 16.2721 71.8568 20.4734 69.5893C22.4558 68.5194 24.5549 68.8979 26.5479 69.7319C28.4737 70.5377 30.2881 71.4983 32.3623 71.8772C35.9379 72.4939 39.6171 71.9424 42.8544 70.3045C46.1152 68.6839 48.7312 66.0077 50.2766 62.7118C51.0721 61.0354 51.7295 59.2188 52.9014 57.7558C53.4911 56.9877 54.2728 56.3884 55.1678 56.0182C56.0628 55.6479 57.0395 55.5199 57.9998 55.6468C62.405 56.1904 65.3283 60.0485 68.8402 62.3197C70.5292 63.412 72.4687 64.2096 74.5137 64.1118C76.6114 64.0115 78.5129 63.0189 80.1205 61.7231C83.5314 58.9737 85.3964 54.7217 88.9762 52.1597C90.6734 50.9754 92.6428 50.2396 94.7012 50.0209C96.7595 49.8023 98.8397 50.1079 100.748 50.9093C104.417 52.4912 107.015 56.0357 107.701 59.9364C107.865 60.8974 107.908 61.8754 107.827 62.847C107.782 63.4199 108.676 63.417 108.72 62.847C108.854 60.8254 108.519 58.8002 107.74 56.9295C106.962 55.0589 105.761 53.3935 104.232 52.0633C101.065 49.3323 96.6403 48.4447 92.6159 49.4956C90.5666 50.0386 88.6832 51.0792 87.1331 52.5248C85.4774 54.0512 84.1715 55.9005 82.7738 57.6534C81.4104 59.3635 79.9062 61.0149 77.9924 62.1194C77.0762 62.6776 76.0493 63.0295 74.9831 63.1507C73.917 63.2719 72.8372 63.1594 71.8189 62.8211C69.7532 62.1246 68.0029 60.6896 66.3502 59.3156C64.6464 57.8993 62.9509 56.4822 60.9031 55.5823C58.999 54.7456 56.8154 54.3397 54.8334 55.1638C53.0464 55.9067 51.8637 57.4489 50.9871 59.1168C50.0973 60.8098 49.4636 62.6354 48.4254 64.2499C47.4211 65.7952 46.1324 67.1358 44.6277 68.2005C41.5714 70.3832 37.8549 71.4446 34.1063 71.2052C32.0695 71.0606 30.2176 70.4174 28.3732 69.5746C26.3376 68.6444 24.1936 67.677 21.9031 68.1276C19.9274 68.5163 18.2652 69.8581 17.1111 71.4608C15.7786 73.3113 15.1932 75.5799 14.8876 77.808C14.7277 78.9736 14.6363 80.1461 14.5499 81.319C14.5077 81.8922 15.4011 81.8895 15.4431 81.319V81.319Z" fill="#E4E4E4"/>
<path d="M173.324 177.471L169.082 177.471L167.065 161.12L173.324 161.12L173.324 177.471Z" fill="#FFB6B6"/>
<path d="M173.211 176.086L168.685 174.248L168.552 174.194L166.053 176.086C164.682 176.086 163.363 176.615 162.373 177.563C161.382 178.511 160.796 179.804 160.737 181.173C160.73 181.249 160.73 181.327 160.73 181.406V181.581H174.405V176.086H173.211Z" fill="#2F2E41"/>
<path d="M163.391 173.526L159.391 174.933L152.058 160.178L157.962 158.102L163.391 173.526Z" fill="#FFB6B6"/>
<path d="M162.825 172.257L157.946 172.025L157.802 172.018L156.073 174.631C154.779 175.086 153.711 176.023 153.092 177.245C152.472 178.468 152.349 179.883 152.748 181.194C152.766 181.268 152.793 181.342 152.819 181.416L152.877 181.581L165.776 177.044L163.952 171.861L162.825 172.257Z" fill="#2F2E41"/>
<path d="M174.822 106.969C178.702 106.819 173.896 137.725 173.896 137.725C173.896 137.725 175.302 164.859 175.004 166.283C174.706 167.707 174.966 171.547 174.966 171.547C174.206 170.164 166.363 171.208 166.363 171.208L165.297 143.708L159.849 121.674L152.297 136.443L159.536 159.114C159.536 159.114 162.467 161.825 162.155 162.897C161.844 163.968 154.166 166.384 152.755 166.439C151.344 166.494 151.981 164.703 151.912 162.941C151.844 161.178 145.205 144.84 142.87 139.28C140.534 133.721 142.35 125.883 143.542 120.187C144.734 114.491 151.005 103.802 151.005 103.802C158.79 95.0262 170.942 107.12 174.822 106.969Z" fill="#2F2E41"/>
<path d="M163.964 55.6213C168.051 55.6213 171.365 52.3095 171.365 48.2243C171.365 44.139 168.051 40.8273 163.964 40.8273C159.877 40.8273 156.564 44.139 156.564 48.2243C156.564 52.3095 159.877 55.6213 163.964 55.6213Z" fill="#FFB6B6"/>
<path d="M160.264 60.5102C158.67 61.4576 157.716 63.1983 157.169 64.9696C156.155 68.249 155.545 71.6396 155.352 75.0665L153.246 95.5122L149.181 105.578C157.873 104.824 177.149 108.364 177.149 108.364C177.149 108.364 177.865 108.126 177.149 107.41C176.433 106.694 175.736 107.328 176.452 106.612C177.168 105.897 176.674 106.694 176.436 105.978C176.197 105.262 176.436 105.74 176.674 105.501C176.913 105.262 174.826 103.115 174.826 103.115L176.736 90.5754L179.123 65.2824C176.259 61.7033 170.497 59.5933 170.497 59.5933L169.009 56.915L161.566 57.5102L160.264 60.5102Z" fill="#E6E6E6"/>
<path d="M181.927 88.7881L180.091 77.9677L173.7 79.1252L174.261 88.5898L171.464 108.29C170.812 108.526 170.243 108.946 169.827 109.499C169.41 110.052 169.163 110.714 169.116 111.405C169.069 112.096 169.225 112.786 169.563 113.39C169.902 113.994 170.409 114.487 171.023 114.808C171.637 115.129 172.331 115.264 173.02 115.198C173.71 115.132 174.365 114.866 174.907 114.434C175.448 114.002 175.852 113.421 176.069 112.764C176.286 112.106 176.306 111.399 176.129 110.73L181.927 88.7881Z" fill="#FFB6B6"/>
<path d="M176.647 63.4688C180.783 64.659 182.412 80.0997 182.412 80.0997C184.285 87.5517 180.74 90.6899 179.84 90.6572C177.283 90.564 175.867 88.3763 174.453 89.2733C173.645 89.7863 173.494 83.8914 173.494 83.8914C173.494 83.8914 170.594 78.4066 168.855 73.2506C168.336 71.802 168.193 70.2458 168.437 68.7268C168.682 67.2078 169.308 65.7754 170.255 64.563C170.255 64.563 172.512 62.2786 176.647 63.4688Z" fill="#E6E6E6"/>
<path d="M172.432 45.9638C172.408 44.7622 172.272 43.225 171.43 41.9991C170.719 40.9677 169.286 40.1505 167.95 40.5591C167.965 40.2921 167.906 40.0261 167.778 39.7908C167.651 39.5555 167.461 39.36 167.23 39.2262C166.718 38.9643 166.153 38.8221 165.577 38.8102C164.222 38.6838 162.818 38.5524 161.445 38.8127C159.905 39.1046 158.644 39.8975 157.99 40.9896L157.975 41.0237L157.841 41.6707C157.824 41.7575 157.787 41.8394 157.735 41.9107C157.682 41.9821 157.615 42.0413 157.537 42.0842C157.46 42.1277 157.373 42.1536 157.285 42.1599C157.196 42.1662 157.107 42.1528 157.024 42.1207C156.933 42.0866 156.835 42.0769 156.739 42.0923C156.643 42.1078 156.553 42.148 156.478 42.2089C156.402 42.2699 156.344 42.3494 156.309 42.4397C156.274 42.5301 156.262 42.628 156.277 42.7239L156.313 42.9817L155.926 42.9088C155.829 42.89 155.729 42.8974 155.635 42.9304C155.542 42.9633 155.459 43.0206 155.396 43.0962C155.332 43.1718 155.29 43.2631 155.273 43.3605C155.256 43.458 155.266 43.5582 155.301 43.6506L155.408 43.945C155.328 43.946 155.249 43.9632 155.176 43.9953C155.103 44.0275 155.037 44.0741 154.982 44.1323C154.904 44.2171 154.855 44.3245 154.842 44.439C154.829 44.5535 154.852 44.6693 154.909 44.7695C155.343 45.5095 155.957 46.1271 156.695 46.5646C157.027 46.7644 157.385 46.9175 157.759 47.0195C157.837 47.0414 157.917 47.0608 158 47.0778C160.987 47.7215 164.068 47.8138 167.089 47.3503C166.911 47.946 166.842 48.569 166.887 49.1891C166.913 49.5408 167.035 49.8786 167.239 50.1659C167.444 50.4532 167.724 50.679 168.047 50.8188C168.185 50.8655 168.327 50.8996 168.471 50.921C168.609 50.9433 168.745 50.9767 168.877 51.0207C169.073 51.0924 169.246 51.2144 169.38 51.3745C169.513 51.5346 169.602 51.7271 169.637 51.9325C169.672 52.1378 169.652 52.3488 169.579 52.5441C169.507 52.7393 169.384 52.9119 169.223 53.0444C169.223 53.0444 169.86 53.5723 169.941 53.5455C170.254 53.4071 170.516 53.1741 170.69 52.879C171.904 51.1326 172.491 48.8072 172.432 45.9638Z" fill="#2F2E41"/>
<path d="M65.5668 3.90364C66.0357 3.90364 66.4158 3.52371 66.4158 3.05503C66.4158 2.58636 66.0357 2.20642 65.5668 2.20642C65.0979 2.20642 64.7178 2.58636 64.7178 3.05503C64.7178 3.52371 65.0979 3.90364 65.5668 3.90364Z" fill="white"/>
<path d="M115.204 81.6098H14.5014C14.4178 81.6098 14.3377 81.5766 14.2786 81.5175C14.2195 81.4584 14.1863 81.3783 14.1863 81.2948L14.3392 80.9442L115.204 80.9797C115.288 80.9794 115.368 81.0123 115.427 81.0712C115.487 81.13 115.52 81.21 115.521 81.2936C115.521 81.3771 115.488 81.4574 115.429 81.5167C115.37 81.576 115.29 81.6095 115.207 81.6098H115.204V81.6098Z" fill="#3F3D56"/>
<path d="M33.6567 79.4059H33.0386V81.1664H33.6567V79.4059Z" fill="#3F3D56"/>
<path d="M52.1622 69.288H51.5441V81.1665H52.1622V69.288Z" fill="#3F3D56"/>
<path d="M70.7058 55.0037H70.0876V81.1664H70.7058V55.0037Z" fill="#3F3D56"/>
<path d="M89.2494 42.8025H88.6312V81.1664H89.2494V42.8025Z" fill="#3F3D56"/>
<path d="M107.793 70.7759H107.175V81.1664H107.793V70.7759Z" fill="#3F3D56"/>
<path d="M88.9784 40.6642C90.0227 40.6642 90.8693 39.8179 90.8693 38.7741C90.8693 37.7302 90.0227 36.884 88.9784 36.884C87.9341 36.884 87.0875 37.7302 87.0875 38.7741C87.0875 39.8179 87.9341 40.6642 88.9784 40.6642Z" fill="#00A8E1"/>
<path d="M70.7325 51.7513C71.7769 51.7513 72.6235 50.9051 72.6235 49.8613C72.6235 48.8174 71.7769 47.9712 70.7325 47.9712C69.6882 47.9712 68.8416 48.8174 68.8416 49.8613C68.8416 50.9051 69.6882 51.7513 70.7325 51.7513Z" fill="#00A8E1"/>
<path d="M107.522 69.1844C108.566 69.1844 109.413 68.3382 109.413 67.2944C109.413 66.2505 108.566 65.4043 107.522 65.4043C106.478 65.4043 105.631 66.2505 105.631 67.2944C105.631 68.3382 106.478 69.1844 107.522 69.1844Z" fill="#00A8E1"/>
<path d="M51.3595 147.161V124.86C51.3595 124.574 51.6923 124.342 52.1028 124.342H55.4201C55.8307 124.342 56.1635 124.574 56.1635 124.86V147.219L51.3595 147.161Z" fill="#3F3D56"/>
<path d="M62.3159 147.236V130.196C62.3159 129.921 62.6487 129.698 63.0593 129.698H66.3765C66.7871 129.698 67.1199 129.921 67.1199 130.196V147.199L62.3159 147.236Z" fill="#3F3D56"/>
<path d="M84.2288 147.196V138.53C84.1997 138.426 84.5313 138.336 84.9721 138.328H88.2894C88.7302 138.336 89.0618 138.426 89.0327 138.53V147.219L84.2288 147.196Z" fill="#3F3D56"/>
<path d="M40.403 147.196V138.53C40.403 138.419 40.7358 138.328 41.1463 138.328H44.4636C44.8741 138.328 45.2069 138.419 45.2069 138.53V147.219L40.403 147.196Z" fill="#3F3D56"/>
<path d="M73.2723 147.11V105.261C73.2723 104.724 73.6051 104.289 74.0156 104.289H77.3329C77.7434 104.289 78.0762 104.724 78.0762 105.261V147.219L73.2723 147.11Z" fill="#00A8E1"/>
<path d="M103.329 147.604H28.3029C28.224 147.604 28.1482 147.573 28.0924 147.517C28.0366 147.461 28.0052 147.385 28.0052 147.306C28.0052 147.228 28.0366 147.152 28.0924 147.096C28.1482 147.04 28.224 147.009 28.3029 147.009H103.329C103.408 147.009 103.484 147.04 103.54 147.096C103.596 147.152 103.627 147.228 103.627 147.306C103.627 147.385 103.596 147.461 103.54 147.517C103.484 147.573 103.408 147.604 103.329 147.604Z" fill="#3F3D56"/>
<path d="M189.763 182.124H6.92727C6.86437 182.124 6.80405 182.089 6.75958 182.026C6.71511 181.964 6.69012 181.878 6.69012 181.79C6.69012 181.701 6.71511 181.616 6.75958 181.553C6.80405 181.49 6.86437 181.455 6.92727 181.455H189.763C189.826 181.455 189.886 181.49 189.931 181.553C189.975 181.616 190 181.701 190 181.79C190 181.878 189.975 181.964 189.931 182.026C189.886 182.089 189.826 182.124 189.763 182.124Z" fill="#CACACA"/>
<path d="M33.4324 77.4488C34.4767 77.4488 35.3233 76.6026 35.3233 75.5588C35.3233 74.5149 34.4767 73.6687 33.4324 73.6687C32.388 73.6687 31.5414 74.5149 31.5414 75.5588C31.5414 76.6026 32.388 77.4488 33.4324 77.4488Z" fill="#00A8E1"/>
<path d="M51.8913 67.0333C52.9356 67.0333 53.7822 66.1871 53.7822 65.1432C53.7822 64.0994 52.9356 63.2532 51.8913 63.2532C50.847 63.2532 50.0004 64.0994 50.0004 65.1432C50.0004 66.1871 50.847 67.0333 51.8913 67.0333Z" fill="#00A8E1"/>
</g>
<defs>
<clipPath id="clip0_377_40">
<rect width="190" height="182.124" fill="white"/>
</clipPath>
</defs>
</svg>
