<svg width="190" height="191" viewBox="0 0 190 191" fill="none" xmlns="http://www.w3.org/2000/svg">
<g clip-path="url(#clip0_363_70)">
<path d="M0.893072 11.5485L189.836 34.2818C189.858 34.2845 189.88 34.2807 189.9 34.271C189.92 34.2606 189.938 34.2454 189.952 34.2268C189.968 34.2056 189.98 34.1817 189.987 34.1563C189.996 34.1272 190 34.0969 190 34.0665C190 34.035 189.996 34.0037 189.987 33.9735C189.979 33.9455 189.967 33.9189 189.951 33.8944C189.937 33.8725 189.919 33.8532 189.899 33.8377C189.88 33.8236 189.858 33.8146 189.835 33.8114L0.893092 10.7645C0.83372 10.7568 0.773456 10.7599 0.715169 10.7735C0.662739 10.7857 0.613258 10.8083 0.569629 10.8398C0.528769 10.8694 0.495206 10.908 0.471478 10.9525C0.447693 10.9979 0.435321 11.0485 0.435416 11.0998C0.435791 11.1542 0.448098 11.2078 0.471478 11.2569C0.495725 11.3079 0.528969 11.3541 0.569629 11.3934C0.612344 11.4349 0.661496 11.4692 0.715169 11.495C0.771108 11.5225 0.831223 11.5406 0.893072 11.5485V11.5485Z" fill="#CACACA"/>
<path d="M0.552791 190.997L189.879 171.72C189.901 171.718 189.922 171.709 189.939 171.695C189.957 171.681 189.971 171.662 189.98 171.641C189.991 171.616 189.998 171.591 189.999 171.564C190.001 171.534 189.999 171.503 189.992 171.474C189.985 171.443 189.974 171.413 189.959 171.386C189.945 171.36 189.927 171.337 189.906 171.317C189.888 171.298 189.867 171.283 189.843 171.273C189.822 171.263 189.798 171.259 189.775 171.261L0.380859 190.233C0.32126 190.238 0.263132 190.254 0.209254 190.28C0.160777 190.304 0.11745 190.337 0.0818033 190.377C0.0484248 190.415 0.0241243 190.46 0.0107382 190.508C-0.00249883 190.558 -0.00349162 190.61 0.00784857 190.66C0.0201375 190.713 0.0439096 190.763 0.0774882 190.805C0.112338 190.85 0.154931 190.888 0.203205 190.917C0.253981 190.948 0.309446 190.971 0.36747 190.984C0.428092 190.999 0.490715 191.003 0.552791 190.997Z" fill="#CACACA"/>
<path d="M186.084 25.2507C185.837 25.2127 185.586 25.2468 185.359 25.3489C185.125 25.4571 184.921 25.62 184.764 25.8239C184.583 26.0568 184.447 26.3207 184.361 26.6028C184.261 26.9288 184.212 27.2682 184.214 27.6092C184.214 27.9635 184.263 28.3162 184.361 28.6567C184.451 28.9723 184.587 29.273 184.764 29.5492C184.921 29.798 185.123 30.0161 185.359 30.1926C185.571 30.3519 185.821 30.4552 186.084 30.4931C186.33 30.5266 186.58 30.4883 186.805 30.3828C187.036 30.2711 187.237 30.1061 187.391 29.9015C187.568 29.669 187.701 29.4066 187.785 29.1267C187.883 28.8045 187.932 28.4693 187.929 28.1326C187.93 27.7827 187.881 27.4344 187.785 27.0979C187.697 26.785 187.565 26.4864 187.391 26.2115C187.236 25.9625 187.037 25.7434 186.805 25.5646C186.594 25.4018 186.346 25.2939 186.084 25.2507V25.2507Z" fill="#3F3D56"/>
<path d="M179.518 24.2654C179.261 24.2257 178.998 24.2597 178.76 24.3636C178.516 24.4722 178.302 24.6378 178.136 24.8464C177.948 25.0831 177.805 25.3528 177.715 25.6418C177.611 25.9748 177.559 26.322 177.561 26.6711C177.561 27.0339 177.613 27.395 177.716 27.743C177.81 28.0666 177.952 28.3743 178.136 28.6562C178.302 28.9121 178.513 29.1357 178.759 29.316C178.982 29.4806 179.243 29.5876 179.517 29.6273C179.774 29.6624 180.036 29.624 180.272 29.5166C180.512 29.4038 180.723 29.2356 180.885 29.0256C181.07 28.7894 181.21 28.5213 181.299 28.2347C181.401 27.9057 181.452 27.563 181.449 27.2185C181.449 26.8603 181.399 26.5039 181.299 26.16C181.206 25.8387 181.067 25.5327 180.886 25.2517C180.723 24.9959 180.515 24.7714 180.273 24.5889C180.051 24.4212 179.792 24.3102 179.518 24.2654V24.2654Z" fill="#3F3D56"/>
<path d="M172.646 23.2324C172.377 23.1905 172.102 23.224 171.851 23.3293C171.598 23.4393 171.374 23.6085 171.199 23.8227C171.002 24.0634 170.852 24.3392 170.758 24.6355C170.648 24.9753 170.593 25.3305 170.595 25.6876C170.596 26.0595 170.65 26.4294 170.758 26.7854C170.857 27.1182 171.006 27.4341 171.199 27.7226C171.374 27.9861 171.595 28.2156 171.851 28.4001C172.087 28.5696 172.359 28.6796 172.646 28.7207C172.915 28.7575 173.188 28.7192 173.437 28.61C173.687 28.4964 173.908 28.3251 174.079 28.11C174.272 27.8694 174.418 27.5951 174.51 27.3011C174.617 26.9655 174.67 26.6152 174.668 26.263C174.668 25.8956 174.615 25.5301 174.51 25.178C174.413 24.8483 174.268 24.5348 174.079 24.2476C173.907 23.9839 173.69 23.7531 173.436 23.5662C173.203 23.3934 172.932 23.2789 172.646 23.2324Z" fill="#3F3D56"/>
<path d="M11.0759 1.54558L22.5966 3.21162C22.7043 3.22796 22.8141 3.22388 22.9203 3.1996C23.0159 3.17751 23.1059 3.1357 23.1844 3.07686C23.2591 3.02091 23.3199 2.9485 23.3621 2.86526C23.4055 2.77831 23.4279 2.68236 23.4274 2.58517C23.4267 2.48165 23.4044 2.37941 23.3621 2.28496C23.3186 2.18743 23.2585 2.09821 23.1844 2.02131C23.1076 1.94119 23.0185 1.87397 22.9203 1.82223C22.8192 1.76865 22.7098 1.73262 22.5966 1.71569L11.0761 0.0111142C10.9628 -0.00648663 10.8473 -0.00315956 10.7352 0.0209319C10.6349 0.0422993 10.54 0.0840746 10.4564 0.143668C10.376 0.201157 10.3107 0.277227 10.266 0.365399C10.2213 0.453571 10.1986 0.551237 10.1997 0.650088C10.2005 0.756921 10.224 0.862365 10.2687 0.959384C10.3149 1.06043 10.3784 1.15257 10.4564 1.23162C10.6234 1.40096 10.8409 1.51141 11.0761 1.54632L11.0759 1.54558Z" fill="#3F3D56"/>
<path d="M11.0759 4.42235L22.5966 6.01794C22.7044 6.03362 22.8142 6.02887 22.9203 6.00395C23.0159 5.98172 23.1058 5.93993 23.1844 5.88121C23.259 5.82483 23.3198 5.75211 23.3621 5.66862C23.4059 5.58053 23.4283 5.48328 23.4273 5.38486C23.4267 5.2815 23.4044 5.17941 23.3621 5.08513C23.3186 4.98796 23.2585 4.89915 23.1844 4.82272C23.1075 4.74344 23.0183 4.67712 22.9203 4.62635C22.8191 4.57337 22.7097 4.538 22.5966 4.52177L11.0761 2.88788C10.9627 2.87102 10.8472 2.8751 10.7353 2.89991C10.6348 2.92216 10.5399 2.96477 10.4565 3.02511C10.3778 3.08219 10.3133 3.15671 10.2682 3.24284C10.2224 3.33238 10.1989 3.43168 10.1998 3.53226C10.2005 3.63894 10.224 3.74423 10.2687 3.84107C10.3151 3.94145 10.3788 4.03286 10.457 4.11109C10.6241 4.27954 10.8417 4.38868 11.0766 4.42186L11.0759 4.42235Z" fill="#3F3D56"/>
<path d="M11.0759 7.299L22.5966 8.82095C22.7046 8.83596 22.8144 8.83055 22.9203 8.805C23.016 8.78189 23.1059 8.73927 23.1844 8.67981C23.2606 8.62195 23.3223 8.54707 23.3645 8.46115C23.4066 8.37523 23.4282 8.28064 23.4273 8.18493C23.4268 8.08166 23.4046 7.97964 23.3623 7.88544C23.3188 7.78852 23.2586 7.70003 23.1844 7.62401C23.1076 7.54462 23.0184 7.47829 22.9203 7.42765C22.8191 7.37523 22.7096 7.34053 22.5966 7.32504L11.0761 5.76481C10.9626 5.74869 10.8471 5.75351 10.7353 5.77905C10.6347 5.80196 10.5398 5.84515 10.4565 5.90597C10.3778 5.96354 10.3134 6.03846 10.2682 6.12493C10.2225 6.21458 10.199 6.31393 10.1998 6.41459C10.2005 6.52111 10.224 6.62625 10.2687 6.72291C10.315 6.82336 10.3787 6.9148 10.4569 6.99293C10.6243 7.16039 10.842 7.2682 11.0766 7.29977L11.0759 7.299Z" fill="#3F3D56"/>
<path d="M65.8493 33.8632L10.1993 29.1486V62.3295L65.8493 63.0559V33.8632Z" fill="#F0F0F0"/>
<path d="M22.4837 77.3288L55.5333 76.6719C55.9149 76.665 56.2793 76.5114 56.5508 76.243C56.681 76.1144 56.7854 75.962 56.8582 75.7941C56.9326 75.622 56.971 75.4366 56.9709 75.2491C56.971 75.0632 56.9327 74.8794 56.8582 74.7091C56.7858 74.5436 56.6813 74.394 56.5508 74.2692C56.4188 74.1429 56.2637 74.0434 56.094 73.9761C55.9156 73.9055 55.7251 73.8707 55.5333 73.8737L22.484 74.3092C22.2598 74.3118 22.038 74.3549 21.8292 74.4366C21.6318 74.5136 21.4501 74.626 21.293 74.7682C21.1415 74.9048 21.0185 75.0698 20.9308 75.254C20.8434 75.4391 20.798 75.6412 20.7978 75.8459C20.7977 76.0492 20.8431 76.2499 20.9308 76.4333C21.0181 76.6145 21.1413 76.776 21.293 76.908C21.4505 77.0453 21.6324 77.1518 21.8292 77.222C22.0392 77.297 22.2611 77.3328 22.484 77.3278L22.4837 77.3288Z" fill="#E4E4E4"/>
<path d="M28.1616 72.1125L50.5358 71.9245C50.7329 71.9232 50.9278 71.8838 51.11 71.8086C51.2839 71.7368 51.4427 71.6328 51.578 71.502C51.7113 71.3736 51.8182 71.2204 51.8929 71.0511C51.969 70.8779 52.0082 70.6908 52.0082 70.5017C52.0082 70.3126 51.969 70.1255 51.8929 69.9523C51.8183 69.7839 51.7113 69.6317 51.578 69.5046C51.4427 69.3752 51.2839 69.2728 51.1103 69.2029C50.9277 69.1294 50.7326 69.0919 50.5358 69.0927L28.1615 69.131C27.9434 69.1309 27.7271 69.171 27.5235 69.2493C27.3309 69.3232 27.1537 69.4321 27.0008 69.5706C26.8525 69.7046 26.7323 69.8667 26.6474 70.0476C26.562 70.2298 26.5177 70.4286 26.5177 70.6298C26.5177 70.8311 26.562 71.0299 26.6474 71.2121C26.7323 71.3917 26.8523 71.5525 27.0005 71.6849C27.1535 71.8219 27.3308 71.9292 27.5232 72.0011C27.7272 72.0773 27.9435 72.1153 28.1613 72.113L28.1616 72.1125Z" fill="#E4E4E4"/>
<path d="M65.8493 86.9486L10.1993 89.4866V122.668L65.8493 116.141V86.9486Z" fill="#F0F0F0"/>
<path d="M22.4837 136.066L55.5333 131.102C55.7304 131.071 55.9204 131.006 56.094 130.908C56.2655 130.811 56.4199 130.687 56.5507 130.54C56.6802 130.395 56.7841 130.23 56.8582 130.051C56.9317 129.874 56.97 129.684 56.9709 129.492C56.9722 129.31 56.9337 129.13 56.8582 128.965C56.7868 128.811 56.6817 128.675 56.5507 128.566C56.4171 128.457 56.2613 128.377 56.094 128.333C55.911 128.285 55.7202 128.275 55.5333 128.303L22.484 133.046C22.2552 133.079 22.0338 133.151 21.8292 133.259C21.63 133.363 21.449 133.498 21.293 133.66C21.1421 133.816 21.0195 133.996 20.9308 134.194C20.8445 134.386 20.7991 134.593 20.7978 134.803C20.7963 135.001 20.8419 135.197 20.9308 135.374C21.0169 135.542 21.1409 135.689 21.293 135.801C21.4528 135.919 21.6354 136.002 21.8292 136.045C22.0443 136.093 22.2664 136.1 22.484 136.066L22.4837 136.066Z" fill="#E4E4E4"/>
<path d="M28.1616 130.11L50.5358 127.006C50.7371 126.977 50.9317 126.913 51.1101 126.815C51.2854 126.719 51.4435 126.595 51.5778 126.447C51.7102 126.303 51.8167 126.136 51.8927 125.956C51.9681 125.777 52.0074 125.585 52.0083 125.391C52.0095 125.207 51.9701 125.024 51.8929 124.857C51.8194 124.7 51.7119 124.561 51.5781 124.45C51.441 124.338 51.2816 124.256 51.1103 124.21C50.9231 124.16 50.7277 124.148 50.5358 124.174L28.1616 127.128C27.9388 127.158 27.723 127.226 27.5235 127.33C27.3291 127.43 27.1525 127.562 27.0008 127.719C26.8533 127.871 26.7338 128.048 26.6476 128.242C26.5633 128.431 26.5192 128.635 26.518 128.841C26.5168 129.037 26.5611 129.231 26.6476 129.406C26.7314 129.573 26.8522 129.719 27.0008 129.833C27.1559 129.951 27.3339 130.035 27.5235 130.081C27.7324 130.131 27.949 130.141 28.1616 130.11V130.11Z" fill="#E4E4E4"/>
<path d="M98.1773 116.392L185.673 105.187C185.911 105.153 186.137 105.059 186.33 104.915C186.541 104.757 186.722 104.562 186.864 104.339C187.022 104.092 187.143 103.823 187.223 103.541C187.31 103.236 187.354 102.92 187.354 102.603V47.3322C187.355 47.0166 187.31 46.7026 187.223 46.3994C187.143 46.1226 187.022 45.8595 186.864 45.619C186.723 45.4026 186.541 45.2151 186.33 45.067C186.136 44.931 185.909 44.8479 185.673 44.8257L98.1773 37.6597C97.8026 37.6275 97.4253 37.6778 97.072 37.8072C96.7188 37.9365 96.3982 38.1418 96.1328 38.4084C95.8634 38.6783 95.6511 38.9996 95.5085 39.3533C95.3549 39.7349 95.2766 40.1427 95.2781 40.5541V113.63C95.2759 114.038 95.3542 114.443 95.5085 114.82C95.6502 115.166 95.8628 115.478 96.1328 115.736C96.3954 115.987 96.7102 116.175 97.0546 116.289C97.4165 116.407 97.8001 116.442 98.1773 116.392Z" fill="white"/>
<path d="M132.773 75.6358C133.008 75.3306 133.272 75.0495 133.563 74.7968C133.839 74.5563 134.14 74.3458 134.461 74.1688C134.77 73.9983 135.098 73.8633 135.437 73.7665C135.771 73.6715 136.115 73.6169 136.462 73.6038C136.805 73.591 137.148 73.6199 137.484 73.6899C137.819 73.76 138.145 73.8691 138.454 74.0152C138.77 74.1646 139.068 74.3487 139.344 74.5643C139.63 74.789 139.893 75.0431 140.126 75.3226L163.669 103.466C163.941 103.799 164.289 104.062 164.685 104.232C165.047 104.383 165.442 104.439 165.831 104.393C166.238 104.342 166.628 104.198 166.97 103.971C167.362 103.71 167.701 103.376 167.966 102.987L171.085 98.5021C171.444 97.9705 171.904 97.5149 172.438 97.1613C172.896 96.86 173.418 96.6729 173.963 96.6156C174.48 96.5661 175.001 96.6542 175.473 96.8709C175.989 97.115 176.44 97.4793 176.787 97.9334L182.43 105.089L103.556 115.05V113.651L132.773 75.6358Z" fill="#00A8E1"/>
<path d="M98.1776 117.448L185.673 105.998C185.992 105.951 186.295 105.825 186.552 105.631C186.835 105.419 187.077 105.157 187.266 104.858C187.478 104.527 187.639 104.167 187.746 103.789C187.863 103.381 187.922 102.959 187.922 102.535V47.3738C187.922 46.9521 187.863 46.5324 187.746 46.1273C187.64 45.7562 187.478 45.4034 187.266 45.0808C187.078 44.7907 186.836 44.5393 186.552 44.3403C186.293 44.1575 185.99 44.0452 185.673 44.0145L98.1779 36.6011C97.675 36.5565 97.1685 36.6228 96.6941 36.7954C96.2197 36.9679 95.789 37.2425 95.4322 37.5997C95.0696 37.9614 94.7837 38.3925 94.5917 38.8674C94.3848 39.3799 94.2795 39.9279 94.2815 40.4806V113.75C94.2785 114.298 94.3839 114.841 94.5917 115.349C94.7825 115.813 95.0689 116.231 95.4322 116.577C95.7855 116.912 96.2088 117.165 96.6715 117.316C97.1574 117.472 97.6721 117.517 98.1778 117.449L98.1776 117.448ZM185.673 45.6366C185.829 45.6508 185.978 45.7053 186.107 45.7947C186.246 45.8922 186.366 46.0157 186.459 46.1585C186.564 46.3172 186.644 46.4911 186.697 46.674C186.755 46.8741 186.785 47.0815 186.784 47.2899V102.669C186.784 102.879 186.755 103.088 186.697 103.289C186.644 103.475 186.564 103.653 186.459 103.816C186.366 103.964 186.246 104.093 186.106 104.198C185.979 104.293 185.83 104.354 185.673 104.376L98.1771 115.333C97.9284 115.365 97.6756 115.342 97.4372 115.264C97.2106 115.188 97.0034 115.063 96.8308 114.898C96.6533 114.728 96.5135 114.522 96.4205 114.294C96.3192 114.046 96.2679 113.78 96.2693 113.511V40.6272C96.2683 40.3565 96.3197 40.0882 96.4205 39.837C96.5142 39.604 96.6537 39.3922 96.8308 39.2142C97.0053 39.0381 97.2163 38.9024 97.4489 38.8165C97.6815 38.7307 97.93 38.6969 98.1771 38.7174L185.673 45.6366Z" fill="#CBCBCB"/>
<path d="M173.401 174.964L170.771 174.964L169.519 164.814L173.402 164.815L173.401 174.964Z" fill="#FFB6B6"/>
<path d="M174.072 174.105L168.892 174.105H168.891C168.016 174.105 167.176 174.453 166.557 175.072C165.938 175.691 165.59 176.531 165.59 177.407V177.515L174.072 177.515L174.072 174.105Z" fill="#2F2E41"/>
<path d="M149.154 178.437L146.523 178.437L145.272 168.287L149.154 168.287L149.154 178.437Z" fill="#FFB6B6"/>
<path d="M149.825 177.578L144.644 177.578H144.644C143.768 177.578 142.929 177.926 142.31 178.545C141.69 179.164 141.342 180.004 141.342 180.88V180.987L149.825 180.988L149.825 177.578Z" fill="#2F2E41"/>
<path d="M152.33 96.8966L150.613 107.843L166.922 108.058L164.776 97.5407L152.33 96.8966Z" fill="#FFB6B6"/>
<path d="M151.087 105.17L145.893 119.004L145.249 176.334H149.648L160.162 130.273L169.818 171.659H174.11L171.106 124.692C171.106 124.692 171.992 114.568 167.458 108.594L166.354 105.405L151.087 105.17Z" fill="#2F2E41"/>
<path d="M173.366 115.955C172.912 115.831 172.491 115.609 172.132 115.305C171.773 115 171.485 114.621 171.288 114.193C171.091 113.766 170.991 113.3 170.994 112.829C170.996 112.359 171.102 111.894 171.304 111.469L164.366 88.8442L169.469 87.8324L175.814 110.009C176.506 110.395 177.033 111.022 177.294 111.77C177.555 112.519 177.532 113.337 177.23 114.07C176.929 114.802 176.369 115.399 175.656 115.747C174.944 116.094 174.129 116.168 173.366 115.955V115.955Z" fill="#FFB6B6"/>
<path d="M164.216 102.942C164.311 102.942 164.406 102.933 164.5 102.914V102.914C164.814 102.852 165.099 102.688 165.311 102.448C165.523 102.208 165.651 101.905 165.675 101.585C165.836 99.3763 166.635 95.5308 168.05 90.1557C168.528 88.3288 168.422 86.3983 167.748 84.6346C167.073 82.8709 165.864 81.3626 164.289 80.321C162.715 79.2794 160.854 78.7568 158.967 78.8265C157.081 78.8961 155.263 79.5545 153.77 80.7094C152.813 81.4422 152.015 82.3609 151.423 83.4104C150.831 84.4598 150.458 85.6183 150.325 86.8159C149.622 93.011 150.948 99.2309 151.551 101.618C151.63 101.929 151.809 102.206 152.06 102.406C152.312 102.606 152.622 102.718 152.944 102.725L164.185 102.942C164.195 102.942 164.206 102.942 164.216 102.942Z" fill="#3F3D56"/>
<path d="M132.81 83.0691C132.877 83.2206 132.933 83.3771 132.976 83.5374L147.047 88.3201L149.766 85.9442L153.887 89.58L149.482 94.2541C149.126 94.6317 148.657 94.8836 148.146 94.9721C147.635 95.0606 147.109 94.9808 146.647 94.7447L131.59 87.0516C131.046 87.3857 130.412 87.546 129.774 87.5113C129.137 87.4766 128.524 87.2485 128.019 86.8573C127.514 86.4661 127.14 85.9303 126.947 85.3213C126.754 84.7123 126.751 84.0588 126.938 83.4479C127.125 82.837 127.493 82.2975 127.994 81.9012C128.496 81.505 129.105 81.2707 129.743 81.2295C130.38 81.1884 131.015 81.3424 131.563 81.671C132.111 81.9996 132.546 82.4872 132.81 83.0691V83.0691Z" fill="#FFB6B6"/>
<path d="M147.537 88.5814L152.667 93.0629C152.813 93.1904 152.984 93.285 153.17 93.3401C153.356 93.3952 153.551 93.4097 153.743 93.3825C153.935 93.3552 154.119 93.2869 154.282 93.1823C154.445 93.0776 154.584 92.939 154.689 92.7759L158.358 87.061C159.005 86.3104 159.329 85.3334 159.258 84.3443C159.187 83.3552 158.727 82.4347 157.978 81.7845C157.229 81.1344 156.254 80.8076 155.265 80.876C154.276 80.9443 153.354 81.4021 152.702 82.149L147.55 86.539C147.402 86.6647 147.283 86.8208 147.202 86.9965C147.12 87.1722 147.077 87.3635 147.076 87.5574C147.075 87.7512 147.115 87.943 147.195 88.1197C147.275 88.2964 147.391 88.4539 147.537 88.5814V88.5814Z" fill="#3F3D56"/>
<path d="M165.176 94.637L171.516 92.146C171.696 92.0752 171.859 91.9662 171.993 91.8267C172.128 91.6871 172.231 91.5202 172.295 91.3373C172.359 91.1544 172.383 90.9598 172.365 90.7668C172.347 90.5738 172.288 90.3869 172.192 90.2188L168.81 84.3295C168.442 83.4086 167.724 82.6712 166.813 82.2789C165.903 81.8867 164.874 81.8715 163.952 82.2368C163.031 82.6021 162.291 83.3181 161.897 84.2277C161.502 85.1373 161.484 86.1664 161.846 87.0894L163.37 93.6856C163.413 93.8744 163.497 94.0516 163.615 94.2051C163.734 94.3587 163.884 94.4849 164.055 94.5752C164.227 94.6654 164.416 94.7177 164.609 94.7284C164.803 94.7391 164.996 94.7079 165.176 94.637V94.637Z" fill="#3F3D56"/>
<path d="M160.478 77.432C156.669 77.432 153.582 74.344 153.582 70.5348C153.582 66.7257 156.669 63.6377 160.478 63.6377C164.286 63.6377 167.373 66.7257 167.373 70.5348C167.373 74.344 164.286 77.432 160.478 77.432Z" fill="#FFB6B6"/>
<path d="M151.246 68.2098H162.195V63.4359C159.792 62.4809 157.441 61.6688 156.019 63.4359C154.753 63.4359 153.539 63.9389 152.644 64.8341C151.749 65.7294 151.246 66.9437 151.246 68.2098V68.2098Z" fill="#2F2E41"/>
<path d="M162.827 77.681C158.469 77.681 154.936 74.1473 154.936 69.7883C154.936 65.4293 158.469 61.8956 162.827 61.8956C167.184 61.8956 170.717 65.4293 170.717 69.7883C170.717 74.1473 167.184 77.681 162.827 77.681Z" fill="#2F2E41"/>
<path d="M168.508 68.8413C165.719 68.8413 163.458 66.5797 163.458 63.79C163.458 61.0002 165.719 58.7386 168.508 58.7386C171.297 58.7386 173.558 61.0002 173.558 63.79C173.558 66.5797 171.297 68.8413 168.508 68.8413Z" fill="#2F2E41"/>
</g>
<defs>
<clipPath id="clip0_363_70">
<rect width="190" height="191" fill="white" transform="matrix(-1 0 0 1 190 0)"/>
</clipPath>
</defs>
</svg>
