<svg width="32" height="32" viewBox="0 0 22 22" fill="none" xmlns="http://www.w3.org/2000/svg">
<g clip-path="url(#clip0_332_9)">
<path fill-rule="evenodd" clip-rule="evenodd" d="M19.9375 -0.00038147H2.06252C0.928144 -0.00038147 -0.000427246 0.928156 -0.000427246 2.06257V19.9375C-0.000427246 21.0719 0.928144 22.0004 2.06252 22.0004H19.9375C21.0719 22.0004 22.0004 21.0719 22.0004 19.9375V2.06253C22.0004 0.928156 21.0719 -0.00038147 19.9375 -0.00038147ZM12.5063 5.97406H15.0207V2.95862H12.5063C10.57 2.95862 8.99025 4.53798 8.99025 6.47669V7.9838H6.97969V11H8.98984V19.0414H12.0057V11H14.5176L15.0207 7.9838H12.0057V6.47669C12.0057 6.20382 12.2359 5.97365 12.5063 5.97365V5.97403V5.97406Z" fill="#00A8E1"/>
</g>
<defs>
<clipPath id="clip0_332_9">
<rect width="22" height="22" fill="white"/>
</clipPath>
</defs>
</svg>
