<svg width="32" height="32" viewBox="0 0 22 22" fill="none" xmlns="http://www.w3.org/2000/svg">
<g clip-path="url(#clip0_332_11)">
<path d="M11.0018 3.05176e-05C8.01367 3.05176e-05 7.6377 0.0125631 6.46501 0.066274C5.55265 0.0848175 4.65004 0.257954 3.79557 0.578318C3.06117 0.852891 2.39615 1.28564 1.84766 1.8459C1.2879 2.39551 0.854191 3.06013 0.576497 3.79381C0.256008 4.6488 0.083457 5.55212 0.0662435 6.46504C0.0143229 7.63773 0 8.01191 0 11C0 13.9881 0.0125326 14.3605 0.0662435 15.535C0.084787 16.4474 0.257923 17.35 0.578288 18.2045C0.854213 18.9382 1.28678 19.6029 1.84587 20.1524C2.39501 20.7127 3.05976 21.1465 3.79378 21.4235C4.649 21.7432 5.55218 21.9157 6.46501 21.9338C7.6377 21.9875 8.01188 22 11 22C13.9881 22 14.3605 21.9875 15.535 21.9338C16.4478 21.9157 17.351 21.7432 18.2062 21.4235C18.9378 21.1398 19.6022 20.7066 20.1571 20.1518C20.712 19.5969 21.1451 18.9325 21.4289 18.2009C21.7475 17.3459 21.9206 16.4436 21.9409 15.5314C21.9928 14.3588 22.0072 13.9846 22.0072 10.9965C22.0072 8.00833 21.9928 7.63415 21.9409 6.46146C21.9206 5.5487 21.7475 4.6458 21.4289 3.79023C21.1525 3.0563 20.7193 2.39152 20.1595 1.84232C19.6113 1.28165 18.9462 0.848836 18.2116 0.574738C17.354 0.254802 16.4483 0.0828681 15.5332 0.066274C14.3587 0.0125631 13.9863 3.05176e-05 10.9982 3.05176e-05H11.0018ZM10.0135 1.98196H11.0018C13.938 1.98196 14.2853 1.99271 15.4455 2.04642C16.143 2.05436 16.834 2.18214 17.4883 2.42418C17.9659 2.60064 18.3979 2.88208 18.7523 3.24775C19.1172 3.60275 19.3985 4.03452 19.5758 4.51175C19.8179 5.16601 19.9457 5.857 19.9536 6.55456C20.0073 7.71292 20.0181 8.06204 20.0181 10.9982C20.0181 13.9344 20.0073 14.2818 19.9536 15.4419C19.9459 16.1389 19.8181 16.8294 19.5758 17.4829C19.3926 17.957 19.1122 18.3874 18.7527 18.7466C18.3932 19.1059 17.9625 19.3859 17.4883 19.5687C16.8345 19.8126 16.1433 19.9411 15.4455 19.9483C14.2871 20.002 13.938 20.0127 11.0018 20.0127C8.06559 20.0127 7.71647 20.002 6.55631 19.9483C5.85866 19.9398 5.16766 19.8114 4.51351 19.5687C4.03537 19.393 3.6028 19.1122 3.24772 18.7469C2.8827 18.3924 2.60188 17.9604 2.42594 17.4829C2.18329 16.8288 2.0549 16.1378 2.04639 15.4401C1.99447 14.28 1.98372 13.9326 1.98372 10.9947C1.98372 8.05667 1.99447 7.71113 2.04639 6.55097C2.05382 5.85321 2.18225 5.16203 2.42594 4.50817C2.60188 4.03067 2.8827 3.59873 3.24772 3.24417C3.60308 2.87884 4.03553 2.59748 4.51351 2.4206C5.16787 2.1787 5.85874 2.05034 6.55631 2.04105C7.57145 1.99629 7.96354 1.98196 10.0135 1.98017V1.98196ZM16.8724 3.80814C16.611 3.80814 16.3555 3.88567 16.1381 4.03094C15.9208 4.1762 15.7515 4.38267 15.6515 4.6242C15.5516 4.86574 15.5255 5.1315 15.5766 5.38786C15.6278 5.64421 15.7538 5.87964 15.9387 6.06435C16.1237 6.24907 16.3593 6.37476 16.6157 6.42554C16.8721 6.47632 17.1379 6.4499 17.3793 6.34962C17.6207 6.24934 17.8269 6.07971 17.9719 5.86219C18.1168 5.64467 18.194 5.38904 18.1937 5.12764C18.1937 4.95421 18.1595 4.78248 18.0931 4.62227C18.0266 4.46207 17.9293 4.31653 17.8066 4.19397C17.6839 4.07142 17.5382 3.97427 17.3779 3.90806C17.2176 3.84186 17.0458 3.8079 16.8724 3.80814ZM11.0018 5.35143C9.8846 5.35143 8.7925 5.68272 7.8636 6.30339C6.93469 6.92407 6.21069 7.80626 5.78316 8.8384C5.35564 9.87055 5.24377 11.0063 5.46173 12.102C5.67968 13.1977 6.21766 14.2042 7.00763 14.9942C7.7976 15.7842 8.80408 16.3221 9.8998 16.5401C10.9955 16.758 12.1313 16.6462 13.1634 16.2187C14.1956 15.7911 15.0778 15.0671 15.6984 14.1382C16.3191 13.2093 16.6504 12.1172 16.6504 11C16.6499 9.50207 16.0546 8.06561 14.9954 7.00639C13.9362 5.94718 12.4997 5.3519 11.0018 5.35143ZM11.0018 7.33336C11.7272 7.3323 12.4367 7.54644 13.0403 7.9487C13.644 8.35095 14.1148 8.92323 14.3932 9.59313C14.6715 10.263 14.7449 11.0004 14.604 11.7121C14.4632 12.4237 14.1144 13.0775 13.6018 13.5909C13.0892 14.1042 12.4359 14.4539 11.7245 14.5958C11.0131 14.7378 10.2755 14.6655 9.60523 14.3881C8.93492 14.1107 8.36195 13.6408 7.95881 13.0377C7.55568 12.4346 7.3405 11.7255 7.34049 11C7.34239 10.0297 7.7288 9.09976 8.41506 8.41383C9.10133 7.7279 10.0315 7.34195 11.0018 7.34053V7.33336Z" fill="#00A8E1"/>
</g>
<defs>
<clipPath id="clip0_332_11">
<rect width="22" height="22" fill="white"/>
</clipPath>
</defs>
</svg>
