<svg width="32" height="32" viewBox="0 0 22 22" fill="none" xmlns="http://www.w3.org/2000/svg">
<g clip-path="url(#clip0_332_7)">
<path fill-rule="evenodd" clip-rule="evenodd" d="M22.0004 4.17704C21.1917 4.5388 20.3203 4.77915 19.4105 4.88633C20.3427 4.32808 21.0556 3.44337 21.3959 2.39019C20.5246 2.90541 19.5563 3.28343 18.5303 3.48559C17.7053 2.60902 16.5335 2.06418 15.2355 2.06418C12.743 2.06418 10.7251 4.08323 10.7251 6.57411C10.7251 6.9257 10.7641 7.26959 10.8405 7.60131C7.09017 7.41128 3.76538 5.61591 1.53963 2.8843C1.13956 3.57346 0.928888 4.35618 0.928996 5.15305C0.928996 6.71701 1.72313 8.10029 2.93467 8.90704C2.19534 8.88511 1.49986 8.67886 0.88919 8.3447V8.40114C0.88919 10.5883 2.4438 12.4133 4.50956 12.8258C4.13117 12.9285 3.73166 12.9854 3.31998 12.9854C3.02848 12.9854 2.7475 12.9553 2.46817 12.9046C3.04509 14.6959 4.71056 16.0016 6.68296 16.0398C5.13646 17.2513 3.19414 17.9728 1.07674 17.9728C0.711334 17.9728 0.355278 17.9504 -0.000366211 17.9078C2.00126 19.192 4.37234 19.9358 6.91967 19.9358C15.2185 19.9358 19.7605 13.0585 19.7605 7.09541C19.7605 6.89727 19.756 6.70525 19.7479 6.51117C20.6294 5.88063 21.3935 5.08485 21.9984 4.17903L22.0005 4.17701L22.0004 4.17704Z" fill="#00A8E1"/>
</g>
<defs>
<clipPath id="clip0_332_7">
<rect width="22" height="22" fill="white"/>
</clipPath>
</defs>
</svg>
