<svg width="17" height="17" viewBox="0 0 17 17" fill="none" xmlns="http://www.w3.org/2000/svg">
<path fill-rule="evenodd" clip-rule="evenodd" d="M14.5218 2.47059C12.9233 0.87662 10.7972 1.38672e-10 8.53263 1.38672e-10C3.86772 -2.64312e-05 0.0708954 3.77835 0.0708954 8.42365C0.0708954 9.90748 0.461498 11.3588 1.20158 12.6341L0 17L4.48798 15.828C5.72566 16.4989 7.11802 16.8545 8.53138 16.8545H8.53484C13.2001 16.8545 17 13.0761 17 8.43113C17 6.17966 16.119 4.06524 14.5205 2.47185L14.5218 2.47061L14.5218 2.47059ZM8.53513 15.4332C7.27078 15.4332 6.03246 15.0941 4.95197 14.4563L4.6944 14.3033L2.0311 14.9974L2.74234 12.4143L2.57574 12.149C1.86764 11.0363 1.4981 9.74855 1.4981 8.42397C1.4981 4.56283 4.65458 1.42074 8.53893 1.42074C10.4172 1.42074 12.1867 2.15156 13.5141 3.47239C14.8422 4.79731 15.5726 6.55396 15.5726 8.42614C15.5694 12.2901 12.4129 15.4322 8.53454 15.4322L8.53518 15.4331L8.53513 15.4332ZM12.3925 10.1875C12.1823 10.081 11.141 9.57339 10.9478 9.50316C10.7545 9.43291 10.6136 9.3967 10.4702 9.6096C10.3303 9.81878 9.92339 10.2939 9.79948 10.436C9.67554 10.5755 9.55287 10.5955 9.34268 10.489C9.13247 10.3826 8.44822 10.1606 7.64098 9.44321C7.0132 8.88565 6.58746 8.1951 6.46352 7.98595C6.3396 7.77677 6.4497 7.66063 6.55733 7.55795C6.65458 7.46428 6.76784 7.31256 6.87452 7.18923C6.98151 7.06593 7.01477 6.97977 7.08503 6.83743C7.15563 6.69788 7.12112 6.57455 7.06811 6.46872C7.01477 6.36259 6.59059 5.32643 6.41772 4.90438C6.24799 4.49197 6.07074 4.54941 5.94053 4.54224C5.81661 4.53598 5.67636 4.53598 5.53678 4.53598C5.39714 4.53598 5.16623 4.58874 4.97299 4.79852C4.77972 5.0077 4.23194 5.51904 4.23194 6.55488C4.23194 7.59102 4.9893 8.59033 5.09565 8.73301C5.20262 8.87222 6.58746 11.0004 8.70893 11.9111C9.21308 12.1268 9.60682 12.2563 9.91367 12.3565C10.421 12.5157 10.8812 12.4926 11.2451 12.4393C11.6521 12.3796 12.4966 11.931 12.6739 11.4393C12.8509 10.9473 12.8509 10.5265 12.7978 10.4394C12.7476 10.3457 12.6077 10.2939 12.3941 10.1862L12.3925 10.1875H12.3925Z" fill="white"/>
</svg>
