<svg width="20" height="21" viewBox="0 0 20 21" fill="none" xmlns="http://www.w3.org/2000/svg">
<path fill-rule="evenodd" clip-rule="evenodd" d="M17.0845 3.40657C15.2039 1.53132 12.7026 0.5 10.0384 0.5C4.55026 0.499969 0.0834064 4.94512 0.0834064 10.4102C0.0834064 12.1559 0.542938 13.8634 1.41363 15.3636L0 20.5L5.27998 19.1212C6.73607 19.9105 8.37414 20.3288 10.0369 20.3288H10.041C15.5295 20.3288 20 15.8837 20 10.419C20 7.77019 18.9636 5.28263 17.083 3.40806L17.0845 3.4066L17.0845 3.40657ZM10.0413 18.6567C8.55386 18.6567 7.09701 18.2578 5.82585 17.5074L5.52282 17.3275L2.38954 18.1439L3.22629 15.1051L3.03029 14.7929C2.19722 13.4839 1.76247 11.9689 1.76247 10.4106C1.76247 5.86804 5.47598 2.17145 10.0458 2.17145C12.2556 2.17145 14.3373 3.03125 15.899 4.58516C17.4614 6.14389 18.3207 8.21054 18.3207 10.4131C18.317 14.9589 14.6035 18.6555 10.0406 18.6555L10.0414 18.6566L10.0413 18.6567ZM14.5794 12.4853C14.3321 12.36 13.1071 11.7628 12.8797 11.6802C12.6523 11.5975 12.4866 11.5549 12.3179 11.8054C12.1533 12.0515 11.6746 12.6105 11.5288 12.7776C11.383 12.9418 11.2387 12.9653 10.9914 12.8401C10.7441 12.7148 9.93908 12.4537 8.98939 11.6097C8.25082 10.9537 7.74995 10.1413 7.60414 9.89524C7.45835 9.64915 7.58789 9.51251 7.71451 9.39171C7.82892 9.2815 7.96217 9.10301 8.08767 8.95792C8.21354 8.81286 8.25267 8.71149 8.33533 8.54404C8.41839 8.37985 8.37779 8.23476 8.31542 8.11025C8.25267 7.98541 7.75364 6.76639 7.55026 6.26986C7.35057 5.78467 7.14204 5.85224 6.98885 5.84382C6.84307 5.83645 6.67807 5.83645 6.51385 5.83645C6.34957 5.83645 6.07792 5.89851 5.85057 6.14532C5.6232 6.39141 4.97876 6.99299 4.97876 8.21163C4.97876 9.43061 5.86976 10.6063 5.99488 10.7741C6.12073 10.9379 7.74995 13.4416 10.2458 14.513C10.8389 14.7668 11.3021 14.9192 11.6631 15.0371C12.26 15.2244 12.8014 15.1972 13.2296 15.1344C13.7083 15.0643 14.7019 14.5365 14.9105 13.958C15.1186 13.3792 15.1186 12.8841 15.0563 12.7817C14.9972 12.6715 14.8326 12.6105 14.5812 12.4838L14.5794 12.4853H14.5794Z" fill="white"/>
</svg>
