<svg width="20" height="21" viewBox="0 0 20 21" fill="none" xmlns="http://www.w3.org/2000/svg">
<path d="M9.99837 0.5C7.28279 0.5 6.9411 0.511393 5.87537 0.560221C5.04622 0.577079 4.22593 0.734476 3.4494 1.02572C2.78198 1.27533 2.17761 1.66874 1.67914 2.17806C1.17044 2.67771 0.776284 3.28191 0.523918 3.94889C0.232659 4.72615 0.0758453 5.54735 0.0602018 6.37728C0.0130166 7.44336 0 7.78353 0 10.5C0 13.2165 0.0113895 13.555 0.0602018 14.6227C0.077054 15.4521 0.234399 16.2727 0.525545 17.0495C0.776305 17.7165 1.16942 18.3208 1.67751 18.8203C2.17657 19.3297 2.7807 19.7241 3.44777 19.9759C4.22499 20.2665 5.04579 20.4233 5.87537 20.4398C6.9411 20.4886 7.28116 20.5 9.99675 20.5C12.7123 20.5 13.0508 20.4886 14.1181 20.4398C14.9477 20.4233 15.7685 20.2665 16.5457 19.9759C17.2106 19.7179 17.8144 19.3242 18.3187 18.8198C18.8229 18.3153 19.2166 17.7113 19.4745 17.0462C19.764 16.269 19.9213 15.4487 19.9398 14.6195C19.987 13.5534 20 13.2132 20 10.4967C20 7.78027 19.987 7.4401 19.9398 6.37402C19.9213 5.54425 19.764 4.72343 19.4745 3.94564C19.2233 3.27843 18.8296 2.67408 18.3209 2.1748C17.8227 1.66511 17.2182 1.27164 16.5506 1.02246C15.7713 0.73161 14.9482 0.575307 14.1165 0.560221C13.0491 0.511393 12.7107 0.5 9.99512 0.5H9.99837ZM9.10023 2.30176H9.99837C12.6668 2.30176 12.9824 2.31152 14.0368 2.36035C14.6707 2.36757 15.2987 2.48374 15.8933 2.70378C16.3274 2.86419 16.7199 3.12005 17.042 3.45247C17.3736 3.7752 17.6293 4.16772 17.7904 4.60156C18.0104 5.19634 18.1265 5.82452 18.1337 6.45866C18.1826 7.51172 18.1923 7.8291 18.1923 10.4984C18.1923 13.1676 18.1826 13.4834 18.1337 14.5381C18.1267 15.1717 18.0106 15.7994 17.7904 16.3936C17.6239 16.8245 17.3691 17.2158 17.0424 17.5424C16.7156 17.8689 16.3242 18.1235 15.8933 18.2897C15.2991 18.5114 14.6709 18.6282 14.0368 18.6348C12.9841 18.6836 12.6668 18.6934 9.99837 18.6934C7.32997 18.6934 7.01269 18.6836 5.95835 18.6348C5.32432 18.627 4.69634 18.5103 4.10185 18.2897C3.66733 18.13 3.27421 17.8747 2.95151 17.5426C2.61978 17.2203 2.36457 16.8276 2.20469 16.3936C1.98416 15.7989 1.86748 15.1707 1.85975 14.5365C1.81256 13.4818 1.8028 13.166 1.8028 10.4951C1.8028 7.82422 1.81256 7.51009 1.85975 6.4554C1.86651 5.82108 1.98322 5.19273 2.20469 4.59831C2.36457 4.16422 2.61978 3.77155 2.95151 3.44922C3.27446 3.1171 3.66747 2.86131 4.10185 2.70052C4.69653 2.48061 5.32439 2.36391 5.95835 2.35547C6.8809 2.31478 7.23723 2.30176 9.10023 2.30013V2.30176ZM15.3335 3.96191C15.096 3.96191 14.8638 4.0324 14.6663 4.16446C14.4688 4.29652 14.3149 4.48421 14.224 4.70379C14.1332 4.92337 14.1095 5.16497 14.156 5.39802C14.2024 5.63107 14.317 5.8451 14.485 6.01302C14.6531 6.18094 14.8673 6.29521 15.1003 6.34138C15.3333 6.38754 15.5748 6.36352 15.7942 6.27236C16.0136 6.18119 16.201 6.02698 16.3328 5.82924C16.4645 5.63149 16.5347 5.3991 16.5343 5.16146C16.5343 5.0038 16.5033 4.84768 16.4429 4.70204C16.3825 4.5564 16.2941 4.42409 16.1825 4.31268C16.071 4.20127 15.9386 4.11294 15.7929 4.05276C15.6473 3.99257 15.4912 3.9617 15.3335 3.96191ZM9.99837 5.36491C8.98308 5.36491 7.99058 5.66608 7.1464 6.23033C6.30221 6.79458 5.64425 7.59657 5.25571 8.53489C4.86717 9.4732 4.76552 10.5057 4.96359 11.5018C5.16166 12.4979 5.65058 13.4129 6.3685 14.1311C7.08642 14.8492 8.00111 15.3383 8.99689 15.5364C9.99268 15.7346 11.0248 15.6329 11.9628 15.2442C12.9009 14.8555 13.7026 14.1974 14.2667 13.3529C14.8307 12.5084 15.1318 11.5156 15.1318 10.5C15.1314 9.13822 14.5904 7.83234 13.6278 6.86942C12.6652 5.9065 11.3597 5.36534 9.99837 5.36491ZM9.99837 7.16667C10.6576 7.1657 11.3024 7.36038 11.851 7.72606C12.3996 8.09174 12.8275 8.612 13.0804 9.221C13.3334 9.83 13.4001 10.5004 13.2721 11.1473C13.144 11.7942 12.8271 12.3886 12.3612 12.8553C11.8954 13.322 11.3017 13.6399 10.6551 13.7689C10.0086 13.8979 9.33836 13.8322 8.72919 13.5801C8.12001 13.3279 7.5993 12.9007 7.23293 12.3524C6.86656 11.8041 6.67101 11.1595 6.67101 10.5C6.67273 9.61792 7.02389 8.77248 7.64757 8.14891C8.27125 7.52533 9.11658 7.17447 9.99837 7.17318V7.16667Z" fill="white"/>
</svg>
