<svg width="23" height="17" viewBox="0 0 23 17" fill="none" xmlns="http://www.w3.org/2000/svg">
<path d="M1.31129 0.5H21.6887C22.037 0.503312 22.3699 0.63831 22.6154 0.87575C22.8608 1.11319 22.999 1.43395 23 1.76856V15.2206C23.0019 15.4773 22.9222 15.7285 22.7714 15.9404C22.7443 16.0083 22.7021 16.0697 22.6478 16.1203C22.6113 16.1539 22.5696 16.1818 22.5242 16.2031C22.2878 16.3947 21.9886 16.4998 21.6793 16.5H1.31129C0.96457 16.4967 0.633021 16.363 0.387843 16.1275C0.142666 15.892 0.00341617 15.5735 0 15.2404V1.76856C0.000968355 1.43395 0.139137 1.11319 0.384576 0.87575C0.630014 0.63831 0.962959 0.503312 1.31129 0.5V0.5ZM1.25509 14.6862L8.14496 7.80904L1.25509 2.2166V14.6862ZM9.18275 8.66734L1.82081 15.5157H21.1155L14.0813 8.66734L12.0208 10.3246C11.93 10.397 11.8156 10.4366 11.6976 10.4366C11.5796 10.4366 11.4653 10.397 11.3745 10.3246L9.18275 8.66734ZM15.1023 7.79645L21.7449 14.742V2.15542L15.1023 7.79645ZM1.90324 1.47346L11.6779 9.083L21.0218 1.47346H1.90324Z" fill="white"/>
</svg>
