<svg width="20" height="21" viewBox="0 0 20 21" fill="none" xmlns="http://www.w3.org/2000/svg">
<path fill-rule="evenodd" clip-rule="evenodd" d="M10 0.5C15.5229 0.5 20 4.97713 20 10.5C20 16.0229 15.5229 20.5 10 20.5C4.47713 20.5 0 16.0229 0 10.5C0 4.97713 4.47713 0.5 10 0.5ZM14.8131 5.97229L13.029 14.9674C13.029 14.9674 12.7796 15.5912 12.0934 15.2916L7.9888 12.0604C7.9888 12.0604 12.555 7.95588 12.7421 7.78123C12.9293 7.60657 12.8669 7.56919 12.8669 7.56919C12.8793 7.35709 12.53 7.56919 12.53 7.56919L6.47927 11.4118L3.95915 10.5634C3.95915 10.5634 3.57239 10.4261 3.53501 10.1267C3.49757 9.82722 3.97163 9.6651 3.97163 9.6651L13.9898 5.73523C13.9898 5.73523 14.8131 5.37343 14.8131 5.97229ZM9.55492 13.3456L7.92646 14.8303C7.92646 14.8303 7.79914 14.9269 7.65988 14.8664L7.9717 12.1085L9.55492 13.3456Z" fill="white"/>
</svg>
