<svg width="50" height="62" viewBox="0 0 50 62" fill="none" xmlns="http://www.w3.org/2000/svg">
<path d="M42.1194 61.88H3.46969C2.55035 61.88 1.66859 61.5151 1.01804 60.8655C0.367499 60.2159 0.00135742 59.3347 2.31117e-05 58.4154V3.44964C-0.0016403 2.99621 0.0865022 2.54694 0.259365 2.12775C0.432228 1.70855 0.686388 1.32774 1.00718 1.00728C1.32833 0.684594 1.71068 0.429288 2.13181 0.256339C2.55294 0.0833906 3.00437 -0.0037186 3.45962 0.000121662H46.0876C47.0074 0.00145375 47.8892 0.367434 48.5396 1.01783C49.19 1.66823 49.556 2.54998 49.5573 3.46979V46.8733V52.0904V61.8649L42.1194 61.88ZM46.5711 58.919V52.0249V3.46979C46.5693 3.34188 46.5189 3.21944 46.4301 3.12735C46.3388 3.03672 46.2162 2.98447 46.0876 2.98131H3.46969C3.4024 2.97686 3.33495 2.98684 3.27183 3.01057C3.20872 3.0343 3.1514 3.07125 3.10372 3.11893C3.05604 3.16661 3.0191 3.22392 2.99536 3.28704C2.97163 3.35015 2.96166 3.41761 2.96611 3.48489V58.4154C2.96917 58.5415 3.01949 58.6619 3.10711 58.7528C3.19966 58.8446 3.32422 58.8969 3.45458 58.8988H46.5711V58.919ZM9.56804 52.3724V49.2804H27.7473V52.3724H9.56804ZM9.56804 44.0785V40.9865H37.4462V44.0734L9.56804 44.0986V44.0785ZM37.421 32.2292V35.3061H33.0449V32.2292H37.421ZM29.5954 29.4948V35.2809H25.2193V29.4948H29.5954ZM21.7748 21.2059V35.3061H17.3987V21.2059H21.7748ZM13.9492 15.4046V35.2809H9.56804V15.4046H13.9492ZM34.8175 15.5406L41.8979 15.5658C41.895 16.5027 41.7072 17.4299 41.3451 18.2941C40.983 19.1583 40.4538 19.9424 39.7879 20.6016C39.4761 20.9069 39.1373 21.1833 38.7757 21.4274L34.8175 15.5406ZM34.0924 14.1356L33.7097 6.58191C33.7083 6.54619 33.714 6.51056 33.7264 6.47705C33.7389 6.44354 33.7578 6.41281 33.7821 6.38662C33.8064 6.36043 33.8357 6.33929 33.8682 6.32441C33.9007 6.30953 33.9358 6.3012 33.9715 6.2999C35.9405 6.09847 38.2419 7.0452 39.6821 8.36458C41.158 9.7237 42.0587 11.5954 42.2 13.5968C42.2042 13.6681 42.1801 13.7382 42.133 13.7919C42.0858 13.8456 42.0195 13.8786 41.9482 13.8838L34.3945 14.4277C34.3232 14.4318 34.2531 14.4078 34.1994 14.3606C34.1457 14.3135 34.1127 14.2472 34.1075 14.1759L34.0924 14.1356ZM34.8931 13.5968L41.1123 13.0227C40.659 9.69403 38.1663 7.29196 34.5657 7.02002L34.8931 13.5968ZM33.2363 15.2133L37.0333 21.7598C36.0655 22.3093 34.9887 22.6392 33.8792 22.7262C32.7696 22.8132 31.6546 22.655 30.613 22.263C29.5714 21.871 28.6288 21.2547 27.8519 20.4577C27.0751 19.6608 26.483 18.7028 26.1177 17.6515C25.7524 16.6002 25.6228 15.4815 25.738 14.3746C25.8533 13.2676 26.2106 12.1996 26.7846 11.2461C27.3587 10.2927 28.1354 9.47716 29.0597 8.85735C29.9841 8.23754 31.0334 7.82862 32.1334 7.65957L33.2363 15.2133Z" fill="#2D2A25"/>
<path d="M42.1194 61.88H3.46969C2.55035 61.88 1.66859 61.5151 1.01804 60.8655C0.367499 60.2159 0.00135742 59.3347 2.31117e-05 58.4154V3.44964C-0.0016403 2.99621 0.0865022 2.54694 0.259365 2.12775C0.432228 1.70855 0.686388 1.32774 1.00718 1.00728C1.32833 0.684594 1.71068 0.429288 2.13181 0.256339C2.55294 0.0833906 3.00437 -0.0037186 3.45962 0.000121662H46.0876C47.0074 0.00145375 47.8892 0.367434 48.5396 1.01783C49.19 1.66823 49.556 2.54998 49.5573 3.46979V46.8733V52.0904V61.8649L42.1194 61.88ZM46.5711 58.919V52.0249V3.46979C46.5693 3.34188 46.5189 3.21944 46.4301 3.12735C46.3388 3.03672 46.2162 2.98447 46.0876 2.98131H3.46969C3.4024 2.97686 3.33495 2.98684 3.27183 3.01057C3.20872 3.0343 3.1514 3.07125 3.10372 3.11893C3.05604 3.16661 3.0191 3.22392 2.99536 3.28704C2.97163 3.35015 2.96166 3.41761 2.96611 3.48489V58.4154C2.96917 58.5415 3.01949 58.6619 3.10711 58.7528C3.19966 58.8446 3.32422 58.8969 3.45458 58.8988H46.5711V58.919Z" fill="#00A8E1"/>
</svg>
