<svg width="54" height="44" viewBox="0 0 54 44" fill="none" xmlns="http://www.w3.org/2000/svg">
<path d="M19.3359 34.7323C17.8255 32.0526 17.026 29.0409 17.0114 25.9761C16.9968 22.9113 17.7676 19.8924 19.2525 17.1988C20.7373 14.5052 22.8882 12.2241 25.5061 10.5665C28.124 8.90891 31.1242 7.92845 34.229 7.71588V4.66069C34.229 4.61308 34.229 4.56981 34.229 4.52221H30.7617C30.4894 4.51992 30.2289 4.41177 30.0372 4.22131C29.8454 4.03084 29.7378 3.77347 29.7378 3.50525V1.01696C29.7389 0.749079 29.8469 0.492364 30.0384 0.302137C30.23 0.11191 30.4897 0.00340293 30.7617 0L41.1812 0C41.4547 0.00113897 41.7167 0.108648 41.9101 0.299118C42.1035 0.489588 42.2127 0.747593 42.2139 1.01696V3.50525C42.2139 3.77497 42.1051 4.03363 41.9114 4.22435C41.7177 4.41506 41.4551 4.52221 41.1812 4.52221H37.7183C37.7183 4.56981 37.7183 4.61308 37.7183 4.66069V7.78945C40.86 8.16377 43.8517 9.32563 46.4072 11.1639C48.9626 13.0022 50.9964 15.4553 52.3139 18.2888C53.6315 21.1223 54.1887 24.2412 53.9323 27.3474C53.676 30.4535 52.6146 33.4429 50.8497 36.0297C49.0849 38.6165 46.6755 40.714 43.8522 42.1218C41.0288 43.5296 37.8858 44.2005 34.7239 44.0703C31.562 43.9402 28.4869 43.0133 25.7927 41.3783C23.0985 39.7434 20.8754 37.4551 19.3359 34.7323V34.7323ZM36.9888 23.165C37.6044 23.4908 38.092 24.0096 38.3741 24.6393C38.6562 25.269 38.7168 25.9734 38.5462 26.6408C38.3756 27.3082 37.9837 27.9004 37.4324 28.3235C36.8812 28.7467 36.2023 28.9764 35.5034 28.9764C34.8045 28.9764 34.1256 28.7467 33.5744 28.3235C33.0232 27.9004 32.6312 27.3082 32.4606 26.6408C32.29 25.9734 32.3506 25.269 32.6328 24.6393C32.9149 24.0096 33.4024 23.4908 34.0181 23.165V16.0895C34.0181 15.7016 34.1746 15.3296 34.4531 15.0553C34.7317 14.781 35.1095 14.6269 35.5034 14.6269C35.8974 14.6269 36.2752 14.781 36.5537 15.0553C36.8323 15.3296 36.9888 15.7016 36.9888 16.0895V23.165ZM52.1148 13.307C52.8355 11.6193 52.7476 9.845 51.7236 8.66793C50.4888 7.24852 48.2608 7.08407 46.1909 8.08372C48.3938 9.55611 50.3862 11.3129 52.1148 13.307V13.307ZM18.8921 13.307C18.1758 11.6193 18.2593 9.845 19.2876 8.66793C20.5225 7.24852 22.7505 7.08407 24.8203 8.08372C22.6185 9.55746 20.6263 11.3141 18.8965 13.307H18.8921ZM20.4697 29.7514C21.4288 33.4094 23.7227 36.5913 26.9132 38.6893C30.1037 40.7874 33.9672 41.6545 37.7659 41.1252C41.5645 40.5958 45.032 38.707 47.5061 35.8195C49.9801 32.932 51.2873 29.2483 51.1779 25.4719C51.0685 21.6955 49.5503 18.091 46.9132 15.3471C44.2761 12.6032 40.7049 10.912 36.8818 10.5967C33.0587 10.2813 29.2516 11.3639 26.1877 13.6376C23.1238 15.9113 21.0178 19.2167 20.272 22.9226C19.8212 25.185 19.8888 27.5179 20.4697 29.7514V29.7514Z" fill="#141414"/>
<path d="M5.67773 19.0841C5.28379 19.0841 4.90599 18.93 4.62743 18.6557C4.34887 18.3813 4.19238 18.0093 4.19238 17.6214C4.19238 17.2334 4.34887 16.8614 4.62743 16.5871C4.90599 16.3128 5.28379 16.1587 5.67773 16.1587H13.623C13.8181 16.1587 14.0113 16.1965 14.1915 16.27C14.3717 16.3435 14.5354 16.4513 14.6734 16.5871C14.8113 16.7229 14.9207 16.8842 14.9953 17.0616C15.07 17.2391 15.1084 17.4293 15.1084 17.6214C15.1084 17.8135 15.07 18.0037 14.9953 18.1811C14.9207 18.3586 14.8113 18.5198 14.6734 18.6557C14.5354 18.7915 14.3717 18.8992 14.1915 18.9727C14.0113 19.0462 13.8181 19.0841 13.623 19.0841H5.67773Z" fill="#00A8E1"/>
<path d="M1.48535 27.4621C1.09141 27.4621 0.713607 27.308 0.435049 27.0337C0.156492 26.7594 0 26.3874 0 25.9994C0 25.6115 0.156492 25.2395 0.435049 24.9652C0.713607 24.6908 1.09141 24.5367 1.48535 24.5367H12.0322C12.4262 24.5367 12.804 24.6908 13.0825 24.9652C13.3611 25.2395 13.5176 25.6115 13.5176 25.9994C13.5176 26.3874 13.3611 26.7594 13.0825 27.0337C12.804 27.308 12.4262 27.4621 12.0322 27.4621H1.48535Z" fill="#00A8E1"/>
<path d="M5.75244 36.0609C5.3585 36.0609 4.9807 35.9068 4.70214 35.6325C4.42358 35.3581 4.26709 34.9861 4.26709 34.5982C4.26709 34.2103 4.42358 33.8382 4.70214 33.5639C4.9807 33.2896 5.3585 33.1355 5.75244 33.1355H13.7549C14.1488 33.1355 14.5266 33.2896 14.8052 33.5639C15.0837 33.8382 15.2402 34.2103 15.2402 34.5982C15.2402 34.9861 15.0837 35.3581 14.8052 35.6325C14.5266 35.9068 14.1488 36.0609 13.7549 36.0609H5.75244Z" fill="#00A8E1"/>
</svg>
