<svg width="62" height="60" viewBox="0 0 62 60" fill="none" xmlns="http://www.w3.org/2000/svg">
<path fill-rule="evenodd" clip-rule="evenodd" d="M31.8109 2.95346e-05C38.9419 -0.00195518 45.853 2.40376 51.3664 6.80724C56.8798 11.2107 60.6545 17.3394 62.0471 24.1491C63.4397 30.9587 62.3642 38.0278 59.0037 44.1519C55.6433 50.2759 50.2058 55.0758 43.618 57.7337C37.0302 60.3916 29.6997 60.7431 22.8756 58.7281C16.0515 56.7132 10.1561 52.4566 6.194 46.6836C2.23194 40.9106 0.448387 33.9786 1.14727 27.0687C1.84614 20.1588 4.98421 13.6986 10.0267 8.78909C12.8835 5.99821 16.2789 3.78492 20.0175 2.27654C23.7561 0.768166 27.7641 -0.00550969 31.8109 2.95346e-05ZM21.661 26.2305H22.1625V24.6387C22.1594 22.0929 23.1654 19.6442 24.9708 17.8028C25.8449 16.8961 26.9007 16.1734 28.0728 15.6794C29.2449 15.1855 30.5086 14.9306 31.7858 14.9306C33.0631 14.9306 34.3267 15.1855 35.4989 15.6794C36.671 16.1734 37.7268 16.8961 38.6009 17.8028C40.4063 19.6442 41.4123 22.0929 41.4092 24.6387V26.2305H41.9358C42.3525 26.2305 42.7523 26.3914 43.0474 26.6778C43.3426 26.9643 43.5091 27.353 43.5104 27.7588V42.8711C43.5091 43.2774 43.3428 43.6666 43.0477 43.9538C42.7527 44.2411 42.353 44.403 41.9358 44.4043H21.661C21.2443 44.403 20.845 44.2409 20.5508 43.9535C20.2566 43.6661 20.0914 43.2769 20.0914 42.8711V27.7588C20.0914 27.3535 20.2568 26.9648 20.5511 26.6781C20.8455 26.3915 21.2447 26.2305 21.661 26.2305ZM25.1714 26.2305H38.4605V24.6387C38.4679 22.8403 37.7619 21.1085 36.4897 19.8047C35.8914 19.1792 35.1672 18.6804 34.3622 18.3393C33.5573 17.9982 32.6888 17.8222 31.8109 17.8222C30.933 17.8222 30.0646 17.9982 29.2596 18.3393C28.4547 18.6804 27.7305 19.1792 27.1321 19.8047C25.8582 21.1074 25.1518 22.8399 25.1613 24.6387V26.2305H25.1714ZM30.5873 36.001L28.9324 40.1709H34.6894L33.185 35.9473C33.793 35.647 34.2782 35.1545 34.5612 34.5506C34.8442 33.9466 34.9081 33.267 34.7426 32.6231C34.577 31.9791 34.1918 31.409 33.6499 31.0061C33.1081 30.6032 32.4418 30.3915 31.7601 30.4055C31.0785 30.4196 30.422 30.6586 29.8982 31.0834C29.3743 31.5082 29.0141 32.0937 28.8767 32.7439C28.7392 33.3941 28.8327 34.0705 29.1416 34.6622C29.4506 35.254 29.9568 35.726 30.5773 36.001H30.5873Z" fill="#00A8E1"/>
</svg>
