<svg width="73" height="79" viewBox="0 0 73 79" fill="none" xmlns="http://www.w3.org/2000/svg">
<path fill-rule="evenodd" clip-rule="evenodd" d="M54.2369 2.57161V12.0352H50.7954V4.56462H3.82399V67.8649H31.9176V73.9725C31.9184 75.5179 32.2239 77.0476 32.8162 78.4728C32.8863 78.6464 32.9564 78.8136 33.0393 78.9871H2.54933C1.8732 78.9871 1.22477 78.7162 0.746681 78.2339C0.268589 77.7517 0 77.0976 0 76.4155V2.57161C0 1.88958 0.268589 1.23548 0.746681 0.753209C1.22477 0.270937 1.8732 0 2.54933 0L51.694 0C52.3701 0 53.0185 0.270937 53.4966 0.753209C53.9747 1.23548 54.2433 1.88958 54.2433 2.57161H54.2369ZM44.9701 19.9622H66.9198C68.5263 19.9656 70.066 20.6108 71.2019 21.7567C72.3379 22.9025 72.9775 24.4557 72.9809 26.0762V72.886C72.9775 74.5065 72.3379 76.0596 71.2019 77.2055C70.066 78.3514 68.5263 78.9966 66.9198 79H44.9701C43.3637 78.9966 41.824 78.3514 40.6881 77.2055C39.5521 76.0596 38.9125 74.5065 38.9091 72.886V26.0697C38.9108 24.4493 39.5501 22.8958 40.6866 21.7506C41.8231 20.6054 43.3638 19.9622 44.9701 19.9622ZM40.9996 70.5072H70.9032V26.6291H40.9996V70.5072ZM55.945 72.436C56.4379 72.436 56.9197 72.5834 57.3295 72.8596C57.7393 73.1358 58.0587 73.5284 58.2473 73.9877C58.4359 74.4471 58.4852 74.9525 58.3891 75.4401C58.2929 75.9277 58.0556 76.3756 57.7071 76.7272C57.3586 77.0788 56.9145 77.3182 56.4312 77.4152C55.9478 77.5122 55.4467 77.4624 54.9914 77.2721C54.536 77.0819 54.1468 76.7597 53.873 76.3463C53.5992 75.9329 53.453 75.4469 53.453 74.9497C53.4522 74.6194 53.5161 74.2921 53.641 73.9867C53.7659 73.6814 53.9495 73.4039 54.181 73.1703C54.4126 72.9367 54.6876 72.7516 54.9904 72.6256C55.2931 72.4996 55.6175 72.4351 55.945 72.436ZM25.9012 70.4622C26.4778 70.461 27.0418 70.6324 27.5217 70.9547C28.0017 71.2771 28.376 71.7359 28.5972 72.273C28.8185 72.8101 28.8767 73.4014 28.7645 73.9719C28.6523 74.5425 28.3748 75.0666 27.9671 75.4778C27.5593 75.8891 27.0398 76.1691 26.4742 76.2822C25.9086 76.3954 25.3225 76.3367 24.79 76.1135C24.2575 75.8903 23.8027 75.5128 23.4831 75.0286C23.1636 74.5445 22.9937 73.9755 22.9949 73.3939C22.9949 72.6164 23.3011 71.8707 23.8462 71.3209C24.3912 70.7711 25.1304 70.4622 25.9012 70.4622Z" fill="#00A8E1"/>
<path fill-rule="evenodd" clip-rule="evenodd" d="M44.9701 19.9622H66.9198C68.5263 19.9656 70.066 20.6108 71.2019 21.7567C72.3379 22.9025 72.9775 24.4557 72.9809 26.0762V72.886C72.9775 74.5065 72.3379 76.0596 71.2019 77.2055C70.066 78.3514 68.5263 78.9966 66.9198 79H44.9701C43.3637 78.9966 41.824 78.3514 40.6881 77.2055C39.5521 76.0596 38.9125 74.5065 38.9091 72.886V26.0697C38.9108 24.4493 39.5501 22.8958 40.6866 21.7506C41.8231 20.6054 43.3638 19.9622 44.9701 19.9622ZM40.9996 70.5072H70.9032V26.6291H40.9996V70.5072ZM55.945 72.436C56.4379 72.436 56.9197 72.5834 57.3295 72.8596C57.7393 73.1358 58.0587 73.5284 58.2473 73.9877C58.4359 74.4471 58.4852 74.9525 58.3891 75.4401C58.2929 75.9277 58.0556 76.3756 57.7071 76.7272C57.3586 77.0788 56.9145 77.3182 56.4312 77.4152C55.9478 77.5122 55.4467 77.4624 54.9914 77.2721C54.536 77.0819 54.1468 76.7597 53.873 76.3463C53.5992 75.9329 53.453 75.4469 53.453 74.9497C53.4522 74.6194 53.5161 74.2921 53.641 73.9867C53.7659 73.6814 53.9495 73.4039 54.181 73.1703C54.4126 72.9367 54.6876 72.7516 54.9904 72.6256C55.2931 72.4995 55.6175 72.4351 55.945 72.436Z" fill="#2D2A25"/>
</svg>
