<svg width="56" height="62" viewBox="0 0 56 62" fill="none" xmlns="http://www.w3.org/2000/svg">
<g clip-path="url(#clip0_147_13)">
<path fill-rule="evenodd" clip-rule="evenodd" d="M26.6314 47.5265C28.0533 47.5255 29.4436 47.9513 30.6263 48.7502C31.8091 49.549 32.7312 50.685 33.276 52.0144C33.8208 53.3438 33.9639 54.8068 33.6871 56.2185C33.4103 57.6302 32.7261 58.9271 31.721 59.9451C30.7159 60.9631 29.4351 61.6566 28.0406 61.9377C26.6461 62.2189 25.2005 62.0751 23.8868 61.5245C22.573 60.974 21.4501 60.0415 20.66 58.8449C19.8699 57.6483 19.4482 56.2414 19.4482 54.8022C19.4495 52.8738 20.2066 51.0248 21.5533 49.6607C22.9 48.2967 24.7263 47.5291 26.6314 47.5265ZM1.74197 5.03265C1.39347 4.9968 1.05634 4.887 0.752578 4.71041C0.448816 4.53382 0.185243 4.2944 -0.020953 4.00776C-0.227149 3.72113 -0.371336 3.39372 -0.44411 3.04689C-0.516884 2.70006 -0.516612 2.3416 -0.44331 1.99488C-0.370008 1.64817 -0.225324 1.32098 -0.018692 1.03467C0.187939 0.74836 0.451877 0.50935 0.755906 0.333231C1.05994 0.157111 1.39723 0.0478373 1.74579 0.0125354C2.09435 -0.0227664 2.44635 0.0166968 2.77882 0.128351L14.0247 2.59564L25.6594 44.2367C23.9901 44.3916 22.3826 44.9525 20.9736 45.8715L10.0717 6.85915L1.74197 5.03265ZM26.0432 28.7468L45.6487 23.7214C45.9232 23.6586 46.211 23.7039 46.4537 23.8483C46.6963 23.9926 46.8755 24.2251 46.9547 24.4985L51.2367 39.6352C51.2815 39.7682 51.2982 39.9092 51.286 40.0492C51.2738 40.1892 51.2328 40.3251 51.1657 40.4481C51.0986 40.5711 51.0068 40.6786 50.8963 40.7636C50.7858 40.8487 50.6589 40.9094 50.5239 40.942L30.9234 45.9371C30.6489 46 30.361 45.9546 30.1184 45.8103C29.8758 45.6659 29.6966 45.4334 29.6174 45.1601L25.3304 30.0234C25.2889 29.8916 25.2746 29.7525 25.2884 29.6149C25.3022 29.4773 25.3438 29.344 25.4107 29.2233C25.4775 29.1027 25.5682 28.9972 25.677 28.9135C25.7858 28.8298 25.9104 28.7696 26.0432 28.7367V28.7468ZM20.2259 8.14577L39.7815 3.10019C40.0566 3.03839 40.3445 3.08413 40.5877 3.22824C40.8308 3.37235 41.0112 3.60417 41.0925 3.87721L45.5191 19.0139C45.5608 19.1447 45.5757 19.2827 45.5628 19.4196C45.5499 19.5564 45.5096 19.6891 45.4442 19.8096C45.3789 19.93 45.2899 20.0357 45.1828 20.1201C45.0757 20.2046 44.9526 20.266 44.8212 20.3006L25.2656 25.331C24.9905 25.3928 24.7025 25.347 24.4594 25.2029C24.2162 25.0588 24.0359 24.827 23.9545 24.554L19.523 9.41725C19.4837 9.28707 19.4709 9.1502 19.4852 9.01486C19.4995 8.87952 19.5408 8.74852 19.6064 8.62974C19.6721 8.51095 19.7608 8.40684 19.8673 8.32367C19.9737 8.2405 20.0957 8.17998 20.2259 8.14577ZM35.2602 48.7778L52.7073 44.1207C53.0349 43.989 53.3865 43.9292 53.7387 43.9452C54.0909 43.9612 54.4357 44.0526 54.7504 44.2135C55.0651 44.3743 55.3425 44.6009 55.5643 44.8783C55.7861 45.1556 55.9473 45.4775 56.0371 45.8225C56.127 46.1676 56.1435 46.528 56.0855 46.88C56.0276 47.232 55.8965 47.5676 55.701 47.8645C55.5055 48.1614 55.25 48.413 54.9513 48.6026C54.6527 48.7922 54.3177 48.9156 53.9684 48.9645L37.0598 53.5055C36.8521 51.8144 36.2433 50.1992 35.2851 48.7979L35.2602 48.7778ZM26.6314 53.016C26.9804 53.016 27.3216 53.1208 27.6118 53.3171C27.902 53.5133 28.1282 53.7923 28.2617 54.1187C28.3953 54.445 28.4302 54.8042 28.3622 55.1506C28.2941 55.4971 28.126 55.8154 27.8792 56.0652C27.6324 56.315 27.318 56.4851 26.9757 56.554C26.6334 56.6229 26.2786 56.5875 25.9561 56.4523C25.6337 56.3172 25.3581 56.0882 25.1642 55.7945C24.9703 55.5008 24.8668 55.1554 24.8668 54.8022C24.8661 54.5674 24.9113 54.3349 24.9998 54.1179C25.0882 53.9009 25.2182 53.7037 25.3822 53.5377C25.5462 53.3717 25.7409 53.2402 25.9553 53.1506C26.1697 53.0611 26.3995 53.0154 26.6314 53.016Z" fill="#00A8E1"/>
<path fill-rule="evenodd" clip-rule="evenodd" d="M26.8435 47.4536C28.2654 47.4526 29.6557 47.8785 30.8384 48.6773C32.0212 49.4762 32.9433 50.6121 33.4881 51.9415C34.0329 53.2709 34.176 54.734 33.8992 56.1456C33.6224 57.5573 32.9382 58.8542 31.9331 59.8722C30.928 60.8903 29.6472 61.5837 28.2527 61.8649C26.8582 62.146 25.4126 62.0022 24.0989 61.4517C22.7851 60.9011 21.6622 59.9686 20.8721 58.772C20.082 57.5754 19.6603 56.1685 19.6603 54.7293C19.6616 52.8009 20.4187 50.9519 21.7654 49.5879C23.1121 48.2238 24.9384 47.4563 26.8435 47.4536ZM1.95407 4.95977C1.60556 4.92393 1.26844 4.81413 0.964675 4.63754C0.660913 4.46094 0.39734 4.22152 0.191144 3.93489C-0.0150516 3.64826 -0.159238 3.32085 -0.232013 2.97402C-0.304787 2.62719 -0.304515 2.26872 -0.231213 1.92201C-0.157911 1.57529 -0.0132264 1.24811 0.193405 0.961796C0.400037 0.675484 0.663974 0.436475 0.968004 0.260355C1.27203 0.0842353 1.60933 -0.0250387 1.95789 -0.0603405C2.30645 -0.0956424 2.65844 -0.0561791 2.99092 0.0554755L14.2368 2.52276L25.8715 44.1639C24.2022 44.3188 22.5947 44.8796 21.1857 45.7986L10.2838 6.78627L1.95407 4.95977ZM26.2553 28.674L45.8608 23.6486C46.1353 23.5857 46.4231 23.6311 46.6658 23.7754C46.9084 23.9198 47.0876 24.1523 47.1668 24.4256L51.4488 39.5623C51.4936 39.6954 51.5103 39.8364 51.4981 39.9764C51.4859 40.1163 51.4449 40.2522 51.3778 40.3752C51.3107 40.4982 51.2189 40.6057 51.1084 40.6908C50.9979 40.7758 50.871 40.8366 50.736 40.8691L31.1355 45.8642C30.861 45.9271 30.5731 45.8817 30.3305 45.7374C30.0879 45.593 29.9087 45.3605 29.8295 45.0872L25.5425 29.9505C25.501 29.8187 25.4867 29.6797 25.5005 29.542C25.5143 29.4044 25.5559 29.2711 25.6228 29.1505C25.6896 29.0298 25.7803 28.9243 25.8891 28.8406C25.9979 28.7569 26.1225 28.6968 26.2553 28.6639V28.674ZM35.4723 48.7049L52.9194 44.0478C53.247 43.9162 53.5986 43.8563 53.9508 43.8723C54.303 43.8883 54.6478 43.9798 54.9625 44.1406C55.2772 44.3014 55.5546 44.528 55.7764 44.8054C55.9982 45.0828 56.1594 45.4046 56.2492 45.7497C56.3391 46.0947 56.3556 46.4552 56.2976 46.8072C56.2397 47.1591 56.1086 47.4947 55.9131 47.7916C55.7176 48.0886 55.4621 48.3402 55.1634 48.5298C54.8648 48.7194 54.5298 48.8427 54.1805 48.8916L37.2719 53.4326C37.0642 51.7415 36.4554 50.1263 35.4972 48.7251L35.4723 48.7049ZM26.8435 52.9432C27.1925 52.9432 27.5337 53.0479 27.8239 53.2442C28.1141 53.4405 28.3403 53.7194 28.4738 54.0458C28.6074 54.3722 28.6423 54.7313 28.5742 55.0778C28.5062 55.4242 28.3381 55.7425 28.0913 55.9923C27.8445 56.2421 27.5301 56.4122 27.1878 56.4811C26.8455 56.55 26.4907 56.5147 26.1682 56.3795C25.8458 56.2443 25.5702 56.0154 25.3763 55.7216C25.1824 55.4279 25.0789 55.0826 25.0789 54.7293C25.0782 54.4946 25.1234 54.262 25.2119 54.045C25.3003 53.828 25.4303 53.6308 25.5943 53.4648C25.7582 53.2988 25.953 53.1673 26.1674 53.0778C26.3818 52.9883 26.6116 52.9425 26.8435 52.9432Z" fill="#2D2A25"/>
</g>
<defs>
<clipPath id="clip0_147_13">
<rect width="56" height="62" fill="white"/>
</clipPath>
</defs>
</svg>
