<svg width="48" height="58" viewBox="0 0 48 58" fill="none" xmlns="http://www.w3.org/2000/svg">
<path fill-rule="evenodd" clip-rule="evenodd" d="M26.3735 5.73752L35.35 15.337L26.2223 15.4908L26.3735 5.73752ZM7.89737 44.2792H19.3015V42.5358H7.89737V44.2792ZM7.89737 37.5839H22.3393C22.4386 37.0451 22.6063 36.4737 22.9075 35.8405H7.89737V37.5839ZM7.89737 30.8887H31.1613C31.4118 30.6821 31.6623 30.489 31.9271 30.3195C32.0474 30.242 32.1699 30.1657 32.2946 30.0938V29.1452H7.89737V30.8887ZM7.89737 10.8061H15.9327V9.06159H7.89737V10.8061ZM7.89737 17.5003H19.3015V15.7569H7.89737V17.5003ZM7.89737 24.1945H32.2626V22.4511H7.89737V24.1945ZM40.1919 16.9323C40.1919 16.9323 39.7373 15.8793 39.1039 15.2506L25.8813 1.1056C25.7425 0.930433 25.5669 0.789173 25.3673 0.692224C25.1678 0.595275 24.9494 0.545106 24.7282 0.545412H2.68689C1.20055 0.545412 0 1.76682 0 3.27899V50.0618C0 51.5706 1.20276 52.7943 2.68689 52.7943H22.2775C22.187 52.2274 22.1771 51.6605 22.1715 51.0879C21.9167 50.8656 21.6496 50.6288 21.3848 50.3526H2.4V2.97363H23.5244V16.7033C23.5244 17.543 24.192 18.2367 25.0317 18.2367H37.7919V29.7121C38.1947 29.8839 38.561 30.0916 38.9152 30.3195L39.1525 30.489C39.531 30.7551 39.8532 31.0323 40.1919 31.3265V16.9323Z" fill="#2D2A25"/>
<path fill-rule="evenodd" clip-rule="evenodd" d="M37.1464 33.1574C37.8228 33.5919 38.5842 34.4552 39.5243 35.0008C40.8463 35.7698 43.2959 34.7089 44.5494 36.6061C45.2799 37.7096 45.3152 38.5774 45.3682 39.434C45.4278 40.3568 45.5856 41.2077 46.5158 42.4572C48.054 44.5273 48.374 45.9048 47.5806 47.3406C47.0399 48.3195 45.9034 48.8629 45.6385 49.4825C45.0802 50.8016 45.6981 51.7951 44.9323 53.3331C44.3994 54.4007 43.5784 55.1024 42.4849 55.4605C41.5624 55.7636 40.6355 55.3258 39.8973 55.6424C38.5985 56.1969 37.6419 57.4868 36.6079 57.8135C35.8256 58.0594 35.0057 58.0638 34.2234 57.8135C33.1917 57.4868 32.2328 56.1992 30.934 55.6424C30.1936 55.3258 29.2689 55.7636 28.3464 55.4605C27.2529 55.1024 26.4319 54.4007 25.899 53.3331C25.131 51.7951 25.7522 50.8016 25.1906 49.4825C24.9257 48.8629 23.7892 48.3195 23.2485 47.3395C22.4562 45.9048 22.7773 44.5273 24.3133 42.4572C25.2435 41.2066 25.4013 40.3568 25.4609 39.434C25.5161 38.5774 25.5492 37.7096 26.2808 36.6061C27.5332 34.7089 29.9839 35.7698 31.3048 35.0008C32.2449 34.4552 33.0052 33.5919 33.6827 33.1574C34.8424 32.4109 35.9878 32.4086 37.1464 33.1574ZM33.2424 43.8347L34.8523 45.394L37.6242 42.5279C37.8979 42.245 38.07 42.0183 38.4087 42.3719L39.5067 43.5158C39.8664 43.8784 39.8487 44.0906 39.5089 44.4285L35.4791 48.4531C34.763 49.1671 34.8877 49.212 34.1605 48.4778L31.3952 45.6791C31.243 45.513 31.2595 45.3435 31.4261 45.1773L32.6995 43.8324C32.8904 43.6281 33.0438 43.6416 33.2424 43.8347ZM35.3787 38.3473C39.2606 38.3473 42.4043 41.549 42.4043 45.4961C42.4043 49.4444 39.2584 52.6438 35.3787 52.6438C31.4979 52.6438 28.353 49.4421 28.353 45.4961C28.353 41.5468 31.499 38.3473 35.3787 38.3473Z" fill="#00A8E1"/>
</svg>
