<svg width="22" height="25" viewBox="0 0 22 25" fill="none" xmlns="http://www.w3.org/2000/svg">
<path fill-rule="evenodd" clip-rule="evenodd" d="M17.5418 16.6382C20.2361 17.4846 21.9828 18.8375 21.9828 20.3634C21.9828 22.9248 17.0628 25 10.9914 25C4.91993 25 0 22.9248 0 20.3634C0 18.8009 1.83427 17.4195 4.63256 16.5792C4.73447 16.7339 4.83637 16.8885 4.94031 17.039C5.15907 17.3564 5.38529 17.6684 5.61899 17.9749C3.65836 18.4998 2.40086 19.3095 2.40086 20.2128C2.40086 21.7957 6.20596 23.0794 10.9017 23.0794C15.5974 23.0794 19.4005 21.7957 19.4005 20.2128C19.4005 19.3665 18.3122 18.6056 16.5798 18.0807C16.9202 17.6148 17.2401 17.1306 17.5418 16.6321V16.6382ZM14.6029 17.1896C13.6839 18.2006 12.6249 19.0755 11.4581 19.7876C11.3856 19.8416 11.2983 19.8721 11.2079 19.875C11.1176 19.8779 11.0285 19.8531 10.9527 19.8039C9.28758 18.7566 7.80878 17.44 6.57689 15.9079C4.98311 13.912 3.98038 11.6985 3.63594 9.56228C3.28743 7.40572 3.61352 5.32647 4.68759 3.63581C5.12622 2.94754 5.67735 2.33755 6.31806 1.83121C7.8405 0.626795 9.57899 -0.0120352 11.3052 0.000171731C13.0689 0.02657 14.7578 0.715193 16.0356 1.92887C16.5276 2.37627 16.9531 2.89143 17.2992 3.45881C18.4569 5.36513 18.7076 7.79431 18.198 10.256C17.6328 12.8383 16.3923 15.2251 14.6029 17.1733V17.1896ZM10.9751 3.84333C11.7107 3.84333 12.4299 4.06109 13.0415 4.46907C13.6532 4.87705 14.1299 5.45694 14.4114 6.13539C14.693 6.81384 14.7666 7.56039 14.6231 8.28063C14.4796 9.00087 14.1253 9.66246 13.6052 10.1817C13.085 10.701 12.4222 11.0546 11.7007 11.1979C10.9792 11.3411 10.2313 11.2676 9.55168 10.9866C8.87203 10.7056 8.29113 10.2297 7.88242 9.61907C7.47372 9.00848 7.25557 8.29062 7.25557 7.55627C7.25531 7.06861 7.35133 6.58567 7.53816 6.13507C7.72499 5.68448 7.99895 5.27506 8.34439 4.93023C8.68983 4.58539 9.09997 4.31191 9.55137 4.12541C10.0028 3.93891 10.4865 3.84306 10.9751 3.84333Z" fill="#00A8E1"/>
</svg>
