<svg width="25" height="25" viewBox="0 0 25 25" fill="none" xmlns="http://www.w3.org/2000/svg">
<path fill-rule="evenodd" clip-rule="evenodd" d="M12.5 0C19.4036 0 25 5.59641 25 12.5C25 19.4036 19.4036 25 12.5 25C5.59641 25 0 19.4036 0 12.5C0 5.59641 5.59641 0 12.5 0ZM18.5164 6.84036L16.2863 18.0843C16.2863 18.0843 15.9744 18.864 15.1167 18.4896L9.986 14.4505C9.986 14.4505 15.6938 9.31986 15.9276 9.10153C16.1616 8.88321 16.0836 8.83648 16.0836 8.83648C16.0991 8.57136 15.6625 8.83648 15.6625 8.83648L8.09908 13.6397L4.94894 12.5792C4.94894 12.5792 4.46549 12.4076 4.41877 12.0334C4.37197 11.659 4.96454 11.4564 4.96454 11.4564L17.4873 6.54404C17.4873 6.54404 18.5164 6.09179 18.5164 6.84036ZM11.9437 16.057L9.90808 17.9129C9.90808 17.9129 9.74893 18.0336 9.57486 17.958L9.96463 14.5106L11.9437 16.057Z" fill="#00A8E1"/>
</svg>
