<svg width="25" height="25" viewBox="0 0 25 25" fill="none" xmlns="http://www.w3.org/2000/svg">
<path d="M12.498 0C9.10348 0 8.67638 0.0142415 7.34421 0.0752767C6.30777 0.0963489 5.28242 0.293094 4.31175 0.657145C3.47747 0.96916 2.72202 1.46092 2.09893 2.09757C1.46305 2.72214 0.970355 3.47739 0.654898 4.31112C0.290824 5.28269 0.0948066 6.30919 0.0752522 7.3466C0.0162707 8.6792 0 9.10441 0 12.5C0 15.8956 0.0142369 16.3188 0.0752522 17.6534C0.0963175 18.6902 0.292999 19.7159 0.656931 20.6868C0.970381 21.5206 1.46178 22.276 2.09689 22.9004C2.72071 23.5371 3.47587 24.0301 4.30971 24.3449C5.28124 24.7081 6.30724 24.9042 7.34421 24.9247C8.67638 24.9858 9.10145 25 12.4959 25C15.8904 25 16.3135 24.9858 17.6477 24.9247C18.6846 24.9042 19.7106 24.7081 20.6822 24.3449C21.5132 24.0224 22.268 23.5302 22.8984 22.8997C23.5287 22.2692 24.0207 21.5141 24.3431 20.6828C24.7051 19.7113 24.9017 18.6859 24.9247 17.6493C24.9837 16.3167 25 15.8915 25 12.4959C25 9.10034 24.9837 8.67513 24.9247 7.34253C24.9017 6.30531 24.7051 5.27928 24.3431 4.30705C24.0291 3.47303 23.537 2.71761 22.9011 2.09351C22.2784 1.45639 21.5228 0.964552 20.6883 0.653076C19.7141 0.289513 18.6852 0.0941337 17.6456 0.0752767C16.3114 0.0142415 15.8884 0 12.4939 0H12.498ZM11.3753 2.2522H12.498C15.8335 2.2522 16.228 2.2644 17.546 2.32544C18.3384 2.33446 19.1233 2.47967 19.8666 2.75472C20.4092 2.95524 20.8999 3.27506 21.3025 3.69059C21.717 4.094 22.0366 4.58465 22.238 5.12695C22.513 5.87043 22.6582 6.65565 22.6672 7.44832C22.7282 8.76465 22.7404 9.16138 22.7404 12.498C22.7404 15.8346 22.7282 16.2292 22.6672 17.5476C22.6584 18.3396 22.5132 19.1242 22.238 19.8669C22.0299 20.4056 21.7114 20.8948 21.3029 21.303C20.8945 21.7112 20.4053 22.0294 19.8666 22.2371C19.1239 22.5143 18.3386 22.6603 17.546 22.6685C16.2301 22.7295 15.8335 22.7417 12.498 22.7417C9.16246 22.7417 8.76586 22.7295 7.44793 22.6685C6.6554 22.6588 5.87043 22.5129 5.12732 22.2371C4.58416 22.0375 4.09276 21.7184 3.68939 21.3033C3.27473 20.9004 2.95572 20.4096 2.75586 19.8669C2.4802 19.1236 2.33435 18.3384 2.32468 17.5456C2.2657 16.2272 2.2535 15.8325 2.2535 12.4939C2.2535 9.15527 2.2657 8.76261 2.32468 7.44425C2.33313 6.65135 2.47902 5.86591 2.75586 5.12288C2.95572 4.58028 3.27473 4.08944 3.68939 3.68652C4.09308 3.27138 4.58434 2.95164 5.12732 2.75065C5.87067 2.47576 6.65549 2.32989 7.44793 2.31934C8.60112 2.26847 9.04653 2.2522 11.3753 2.25016V2.2522ZM19.1669 4.32739C18.87 4.32739 18.5797 4.4155 18.3328 4.58058C18.086 4.74565 17.8936 4.98027 17.78 5.25474C17.6665 5.52922 17.6369 5.83122 17.695 6.12253C17.753 6.41384 17.8962 6.68137 18.1063 6.89127C18.3164 7.10118 18.5841 7.24402 18.8754 7.30172C19.1667 7.35942 19.4685 7.3294 19.7427 7.21545C20.017 7.10149 20.2513 6.90873 20.4159 6.66155C20.5806 6.41436 20.6683 6.12387 20.6679 5.82682C20.6679 5.62974 20.6291 5.4346 20.5536 5.25255C20.4782 5.07049 20.3676 4.90511 20.2282 4.76585C20.0888 4.62658 19.9233 4.51618 19.7412 4.44095C19.5591 4.36571 19.364 4.32713 19.1669 4.32739ZM12.498 6.08114C11.2288 6.08114 9.98823 6.4576 8.933 7.16291C7.87776 7.86822 7.05531 8.87071 6.56964 10.0436C6.08397 11.2165 5.95689 12.5071 6.20449 13.7523C6.45208 14.9974 7.06322 16.1411 7.96062 17.0388C8.85802 17.9365 10.0014 18.5479 11.2461 18.7955C12.4908 19.0432 13.781 18.9161 14.9536 18.4303C16.1261 17.9444 17.1282 17.1217 17.8333 16.0661C18.5384 15.0106 18.9147 13.7695 18.9147 12.5C18.9142 10.7978 18.238 9.16543 17.0347 7.96177C15.8315 6.75812 14.1996 6.08168 12.498 6.08114ZM12.498 8.33333C13.322 8.33213 14.128 8.57547 14.8138 9.03257C15.4995 9.48968 16.0344 10.14 16.3506 10.9013C16.6668 11.6625 16.7501 12.5005 16.5901 13.3091C16.4301 14.1178 16.0338 14.8608 15.4515 15.4441C14.8693 16.0274 14.1271 16.4249 13.3189 16.5862C12.5108 16.7474 11.673 16.6653 10.9115 16.3501C10.15 16.0349 9.49913 15.5008 9.04117 14.8155C8.5832 14.1302 8.33876 13.3243 8.33876 12.5C8.34091 11.3974 8.77987 10.3406 9.55946 9.56114C10.3391 8.78167 11.3957 8.34308 12.498 8.34147V8.33333Z" fill="#00A8E1"/>
</svg>
