<svg width="29" height="21" viewBox="0 0 29 21" fill="none" xmlns="http://www.w3.org/2000/svg">
<path d="M1.65336 0H27.3466C27.7858 0.00434649 28.2056 0.181531 28.5151 0.493172C28.8245 0.804813 28.9987 1.22581 29 1.66498V19.3209C29.0024 19.6577 28.9019 19.9873 28.7118 20.2655C28.6776 20.3546 28.6244 20.4352 28.5559 20.5017C28.5098 20.5457 28.4573 20.5824 28.4 20.6103C28.102 20.8617 27.7247 20.9998 27.3348 21H1.65336C1.2162 20.9957 0.798156 20.8201 0.48902 20.511C0.179883 20.2019 0.00430735 19.7839 0 19.3468V1.66498C0.00122097 1.22581 0.175434 0.804813 0.4849 0.493172C0.794366 0.181531 1.21417 0.00434649 1.65336 0V0ZM1.5825 18.6194L10.2697 9.59312L1.5825 2.25304V18.6194ZM11.5783 10.7196L2.29581 19.7082H26.6238L17.7547 10.7196L15.1566 12.8947C15.0421 12.9898 14.898 13.0418 14.7492 13.0418C14.6003 13.0418 14.4562 12.9898 14.3417 12.8947L11.5783 10.7196ZM19.042 9.57659L27.4175 18.6926V2.17274L19.042 9.57659ZM2.39974 1.27767L14.7244 11.2652L26.5057 1.27767H2.39974Z" fill="#00A8E1"/>
</svg>
