<svg width="25" height="25" viewBox="0 0 25 25" fill="none" xmlns="http://www.w3.org/2000/svg">
<path fill-rule="evenodd" clip-rule="evenodd" d="M21.3556 3.63321C19.0049 1.28915 15.8782 2.0393e-10 12.548 2.0393e-10C5.68782 -3.88694e-05 0.104258 5.5564 0.104258 12.3877C0.104258 14.5698 0.678673 16.7042 1.76703 18.5795L0 25L6.59997 23.2765C8.42009 24.2631 10.4677 24.786 12.5462 24.786H12.5512C19.4119 24.786 25 19.2296 25 12.3987C25 9.08774 23.7045 5.97829 21.3537 3.63508L21.3556 3.63325L21.3556 3.63321ZM12.5517 22.6958C10.6923 22.6958 8.87126 22.1972 7.28232 21.2593L6.90353 21.0343L2.98692 22.0549L4.03286 18.2564L3.78786 17.8661C2.74653 16.2299 2.20309 14.3361 2.20309 12.3882C2.20309 6.71005 6.84497 2.08932 12.5572 2.08932C15.3195 2.08932 17.9216 3.16406 19.8737 5.10645C21.8267 7.05486 22.9008 9.63817 22.9008 12.3914C22.8962 18.0736 18.2543 22.6944 12.5508 22.6944L12.5517 22.6958L12.5517 22.6958ZM18.2242 14.9816C17.9151 14.825 16.3838 14.0785 16.0996 13.9752C15.8154 13.8719 15.6082 13.8187 15.3974 14.1318C15.1916 14.4394 14.5932 15.1381 14.411 15.347C14.2287 15.5523 14.0483 15.5816 13.7392 15.4251C13.4301 15.2685 12.4238 14.9421 11.2367 13.8871C10.3135 13.0671 9.68744 12.0516 9.50517 11.744C9.32294 11.4364 9.48486 11.2656 9.64314 11.1146C9.78615 10.9769 9.95271 10.7538 10.1096 10.5724C10.2669 10.3911 10.3158 10.2644 10.4192 10.055C10.523 9.84982 10.4722 9.66845 10.3943 9.51282C10.3158 9.35676 9.69205 7.83299 9.43783 7.21232C9.18822 6.60584 8.92755 6.69031 8.73607 6.67977C8.55384 6.67056 8.34759 6.67056 8.14232 6.67056C7.93696 6.67056 7.59739 6.74814 7.31321 7.05665C7.02899 7.36426 6.22345 8.11623 6.22345 9.63953C6.22345 11.1633 7.3372 12.6328 7.49361 12.8427C7.65091 13.0474 9.68744 16.177 12.8072 17.5163C13.5487 17.8335 14.1277 18.024 14.5789 18.1714C15.3249 18.4055 16.0018 18.3715 16.537 18.293C17.1354 18.2053 18.3774 17.5456 18.6381 16.8225C18.8983 16.099 18.8983 15.4801 18.8203 15.3521C18.7465 15.2143 18.5407 15.1381 18.2266 14.9797L18.2242 14.9816H18.2242Z" fill="#00A8E1"/>
</svg>
